<?xml version="1.0" encoding="utf-8"?>
<!-- Generator: Adobe Illustrator 16.0.0, SVG Export Plug-In . SVG Version: 6.00 Build 0)  -->
<!DOCTYPE svg PUBLIC "-//W3C//DTD SVG 1.1//EN" "http://www.w3.org/Graphics/SVG/1.1/DTD/svg11.dtd">
<svg version="1.1" id="Layer_1" xmlns="http://www.w3.org/2000/svg" xmlns:xlink="http://www.w3.org/1999/xlink" x="0px" y="0px"
	 width="595.28px" height="841.89px" viewBox="0 0 595.28 841.89" enable-background="new 0 0 595.28 841.89" xml:space="preserve">
<g>
	<g>
		<g>
			<path fill="#FFFFFF" d="M210.372,251.656c-7.382,10.46-4.456,27.419,6.619,34.373c11.404,7.16,26.614,1.171,34.93-7.915
				c8.44-9.222,12.459-24.333,9.959-36.609c-2.897-14.233-16.724-27.793-30.665-31.218c-31.85-7.824-59.723,28.414-64.755,56.197
				c-5.974,32.971,14.866,67.152,39.692,87.323c16.192,13.156,35.359,22.511,55.13,28.928c10.148,3.293,20.586,5.978,31.077,7.925
				c10.344,1.919,20.473,1.614,30.893,2.371c1.93,0.139,2.041-2.859,0.114-2.999c-7.541-0.547-15.059-0.081-22.582-1.048
				c-8.127-1.045-16.137-2.894-24.065-4.933c-15.25-3.92-30.166-9.17-44.115-16.536c-27.4-14.471-51.27-38.124-60.887-68.201
				c-9.025-28.231,2.082-58.17,24.737-76.666c12.498-10.203,29.644-14.38,43.937-5.17c12.041,7.759,20.529,20.805,18.894,35.355
				c-1.689,15.019-10.626,30.374-26.721,32.873c-8.406,1.306-16.101-1.51-20.249-9.237c-3.975-7.402-4.336-16.23,0.606-23.233
				C214.035,251.659,211.483,250.08,210.372,251.656L210.372,251.656z"/>
		</g>
	</g>
	<g>
		<g>
			<path fill="#FFFFFF" d="M324.71,391.622c6.353-5.544,13.372-7.428,21.642-7.999c2.921-0.2,13.41,0.199,8.486,5.082
				c-2.79,2.767-8.656,3.406-12.419,3.454c-3.494,0.045-6.753-0.912-10.182-1.26c-1.194-0.121-6.812,0.601-7.522-0.466
				c-1.106-1.661,3.59-7.949,4.729-9.553c1.698-2.384,3.316-4.498,6.452-5.193c2.449-0.542,3.48-0.947,2.077,0.896
				c-3.772,4.96-9.375,7.786-14.472,11.021c-1.754,1.112-3.995,2.797-2.069,4.847c0.53,0.563,1.622,0.676,2.242,0.955
				c1.911,0.862,3.731,2.069,5.263,3.498c2.268,2.115,4.827,4.631,5.254,7.705c0.463,3.326-2.036,5.725-5.462,3.425
				c-1.907-1.282-3.309-4.118-3.969-6.119c-1.014-3.072-2.969-8.288-1.156-11.251c-0.791,0.076-1.584,0.153-2.376,0.229
				c0.227,0.208,0.452,0.416,0.679,0.622c1.413,1.296,3.626-0.73,2.201-2.038c-0.228-0.208-0.452-0.416-0.678-0.623
				c-0.705-0.646-1.834-0.658-2.377,0.229c-2.766,4.525-0.477,11.088,1.471,15.631c1.532,3.576,6.111,9.645,10.703,8.516
				c3.916-0.963,4.38-5.807,3.996-9.092c-0.392-3.354-1.818-4.635-4.07-7.028c-1.095-1.166-2.062-2.33-3.296-3.359
				c-1.068-0.892-3.242-1.699-4.074-2.75c-0.554-0.698-1.09,0.044-0.9-0.732c0.166-0.68,3.564-2.003,4.055-2.273
				c3.069-1.683,5.369-3.764,7.903-6.214c1.601-1.549,6.937-5.136,4.997-8.017c-2.27-3.37-9.336-0.416-11.559,1.456
				c-4.328,3.643-8.104,10.616-8.746,16.237c-0.061,0.535,0.286,1.051,0.709,1.333c2.327,1.563,6.549,0.974,9.251,1.188
				c4.133,0.328,8.1,1.384,12.309,1.136c5.157-0.304,15.237-2.069,15.572-8.898c0.321-6.53-9.585-5.845-13.648-5.532
				c-8.875,0.685-16.262,2.81-23.055,8.736C321.216,390.69,323.255,392.889,324.71,391.622L324.71,391.622z"/>
		</g>
	</g>
	<g>
		<g>
			<path fill="#FFFFFF" d="M287.905,385.445c-0.129,0.069-0.257,0.14-0.386,0.211c0.718,0.335,1.438,0.671,2.155,1.008
				c-0.64-2.281,2.296-6.059,3.559-7.701c1.091-1.417,2.228-2.803,3.45-4.11c1.62-1.73,2.242-3.202,4.58-2.215
				c2.581,1.089,1.026,1.791-0.554,3.545c-1.047,1.162-2.212,2.279-3.382,3.313c-2.99,2.64-6.42,4.847-10.048,6.494
				c0.57,0.81,1.14,1.622,1.709,2.432c0.091-0.071,0.181-0.142,0.271-0.215c1.513-1.198-0.531-3.394-2.039-2.201
				c-0.09,0.071-0.181,0.143-0.271,0.214c-1.383,1.096,0.238,3.101,1.71,2.434c3.44-1.562,25.171-15.456,15.386-20.007
				c-4.777-2.221-8.695,3.028-11.359,6.217c-2.373,2.839-7.116,8.264-5.942,12.449c0.255,0.908,1.266,1.494,2.155,1.008
				c0.129-0.069,0.257-0.14,0.385-0.21C290.981,387.184,289.602,384.52,287.905,385.445L287.905,385.445z"/>
		</g>
	</g>
	<g>
		<g>
			<path fill="#FFFFFF" d="M286.248,385.528c-0.111,0.008-0.221,0.015-0.333,0.021c-0.732,0.046-1.216,0.389-1.493,1.063
				c-2.698,6.554-3.161,12.921,0.024,19.442c1.969,4.029,6.542,9.246,11.593,7.804c5.859-1.673,4.241-7.631,2.083-11.679
				c-1.696-3.181-3.334-6.139-5.567-8.96c-1.972-2.491-5.084-3.78-6.655-6.661c-0.465,0.73-0.928,1.459-1.391,2.188
				c0.196,0.027,0.39,0.055,0.586,0.083c1.914,0.265,2.013-2.734,0.115-2.999c-0.196-0.027-0.391-0.055-0.586-0.082
				c-1.133-0.158-1.893,1.266-1.389,2.189c1.523,2.79,4.222,4.375,6.307,6.65c2.747,2.999,4.848,6.595,6.627,10.246
				c0.306,0.745,0.612,1.49,0.917,2.234c-1.248,1.306-2.497,2.613-3.746,3.919c-0.794,0.114-2.644-1.59-3.175-2.079
				c-1.929-1.772-3.196-4.17-4.019-6.634c-1.726-5.165-0.87-9.892,1.147-14.79c-0.499,0.354-0.995,0.708-1.493,1.063
				c0.111-0.008,0.222-0.015,0.332-0.021C288.045,388.404,288.177,385.404,286.248,385.528L286.248,385.528z"/>
		</g>
	</g>
	<g>
		<g>
			<path fill="#FFFFFF" d="M255.7,377.587c-1.457-3.101,1.94-9.727,3.65-12.115c1.921-2.681,4.313-4.965,7.28-6.443
				c1.794-0.894,6.301-2.584,4.486,1.425c-1.455,3.208-6.659,6.441-9.107,8.695c-2.222,2.048-5.844,6.083-8.951,6.6
				c-1.91,0.317-1.249,3.244,0.649,2.93c2.228-0.371,4.282-2.359,6.05-3.71c3.679-2.813,7.013-6.096,10.408-9.247
				c2.243-2.082,8.434-7.954,3.533-10.721c-4.786-2.703-12.48,3.558-15.22,6.739c-3.249,3.772-7.864,12.071-5.441,17.228
				C253.858,380.719,256.519,379.332,255.7,377.587L255.7,377.587z"/>
		</g>
	</g>
	<g>
		<g>
			<path fill="#FFFFFF" d="M253.8,376.167c-0.062-0.065-0.124-0.133-0.185-0.199c-0.733,0.679-1.467,1.359-2.201,2.039
				c3.612,3.9,7.121,7.77,9.866,12.352c1.061,1.77,2.347,3.696,3.083,5.628c1.094,2.872,0.344,8.7-4.27,6.127
				c-4.722-2.634-5.838-10.21-5.848-15.057c-0.003-1.603-1.123-7.25-0.297-8.398c1.126-1.565-1.425-3.143-2.551-1.581
				c-1.086,1.509-0.628,3.39-0.491,5.142c0.343,4.43,0.485,8.735,1.498,13.111c1.046,4.527,4.908,10.74,10.175,10.96
				c5.623,0.234,6.261-6.1,5.009-10.232c-2.317-7.644-8.698-14.398-13.974-20.092c-1.312-1.416-3.515,0.62-2.201,2.039
				c0.062,0.066,0.123,0.132,0.184,0.199C252.911,379.623,255.114,377.587,253.8,376.167L253.8,376.167z"/>
		</g>
	</g>
	<g>
		<g>
			<path fill="#FFFFFF" d="M226.233,363.478c-2.56-3.278,9.194-11.428,11.188-12.563c1.732-0.986,11.785-6.251,12.328-3.023
				c0.306,1.82-3.41,4.782-4.742,5.799c-2.06,1.575-4.44,2.715-6.815,3.726c-2.409,1.026-4.889,1.886-7.322,2.854
				c-2.344,0.933-4.656,2.469-7.101,3.063c-1.877,0.456-1.229,3.384,0.649,2.929c3.807-0.924,7.426-3.181,11.109-4.594
				c4.023-1.546,8.078-3.114,11.52-5.776c2.494-1.93,9.532-9.599,3.887-11.952c-5.02-2.091-14.431,3.676-18.119,6.358
				c-3.862,2.809-12.963,9.865-8.785,15.216C225.22,367.038,227.415,364.99,226.233,363.478L226.233,363.478z"/>
		</g>
	</g>
	<g>
		<g>
			<path fill="#FFFFFF" d="M223.19,362.627c-3.573-1.559-6.096,5.624-6.927,8.028c-2.364,6.841,0.454,14.338,5.089,19.528
				c4.156,4.655,9.783-0.151,10.093-5.143c0.255-4.11-1.343-8.531-1.859-12.62c-0.488-3.86-2.456-6.487-3.752-10.006
				c-0.666-1.811-3.323-0.409-2.664,1.38c0.695,1.892,1.938,3.455,2.606,5.379c0.723,2.083,0.836,4.169,1.092,6.342
				c0.283,2.407,1.042,4.672,1.403,7.045c0.299,1.968,0.205,2.309-0.766,4.246c-0.326,2.214-1.277,2.515-2.855,0.902
				c-1.323-0.236-2.184-0.957-2.578-2.161c-2.954-3.502-4.315-7.921-3.35-12.456c0.121-0.565,2.811-7.935,3.595-7.593
				C224.084,366.269,224.945,363.393,223.19,362.627L223.19,362.627z"/>
		</g>
	</g>
	<g>
		<g>
			<path fill="#FFFFFF" d="M192.836,335.886c0.5-4.156,10.998-8.094,14.376-9.69c2.771-1.307,5.655-2.53,8.669-3.15
				c2.206-0.453,11.948-0.883,7.982,4.297c-2.651,3.462-12.187,4.355-16.173,4.922c-2.728,0.388-5.437,0.804-8.158,1.238
				c-0.881,0.14-4.976,1.282-5.703,0.675c-1.462-1.22-3.682,0.804-2.201,2.038c1.869,1.56,3.988,0.862,6.255,0.539
				c5.212-0.747,10.581-1.314,15.721-2.462c4.022-0.896,16.627-3.597,14.69-10.166c-2.041-6.918-13.733-4.095-18.118-2.449
				c-5.104,1.915-10.138,4.577-14.758,7.47c-2.411,1.511-5.22,3.621-5.581,6.623C189.607,337.69,192.606,337.792,192.836,335.886
				L192.836,335.886z"/>
		</g>
	</g>
	<g>
		<g>
			<path fill="#FFFFFF" d="M192.311,335.581c0.053-0.103,0.105-0.207,0.158-0.309c0.524-1.02-0.264-2.699-1.6-2.255
				c-3.194,1.062-6,4.508-8.211,6.961c-2.699,2.996-4.868,6.481-6.164,10.308c-1.44,4.249-0.998,10.458,3.799,12.509
				c5.278,2.255,10.211-4.552,11.194-8.941c0.909-4.067,0.341-8.541,0.702-12.687c0.272-3.14,0.644-6.458-0.73-9.406
				c-0.323-0.691-1.356-1.061-2.022-0.643c-0.126,0.08-0.253,0.159-0.378,0.239c-1.625,1.021-0.255,3.69,1.38,2.663
				c0.127-0.079,0.252-0.158,0.378-0.237c-0.674-0.214-1.349-0.429-2.022-0.643c1.831,3.926,0.071,9.385,0.056,13.526
				c-0.009,2.541,0.262,5.2-0.583,7.656c-0.847,2.462-3.764,6.455-6.624,5.463c-5.167-1.79-2.375-9.164-0.621-12.388
				c1.292-2.375,2.954-4.535,4.852-6.458c1.47-1.49,3.645-4.328,5.646-4.994c-0.534-0.752-1.068-1.503-1.601-2.255
				c-0.052,0.103-0.104,0.207-0.158,0.31C188.884,335.704,191.425,337.303,192.311,335.581L192.311,335.581z"/>
		</g>
	</g>
	<g>
		<g>
			<path fill="#FFFFFF" d="M171.2,300.438c5.231-3.545,14.781-3.444,20.858-3.947c3.652-0.302,7.08-0.463,10.682,0.297
				c1.348,0.284,3.035,0.567,4.322,1.063c1.172,0.038,2.019,0.605,2.54,1.699c1.658,0.995,1.58,1.734-0.232,2.216
				c-3.433,3.104-10.58,2.498-14.637,1.977c-4.022-0.517-8.246-0.542-12.196-1.477c-2.259-0.534-8.363-1.578-9.844-3.015
				c-1.377-1.336-3.516,0.605-2.201,2.039c0.078,0.085,0.156,0.169,0.233,0.255c1.306,1.423,3.508-0.614,2.202-2.039
				c-0.078-0.086-0.157-0.169-0.234-0.255c-0.735,0.68-1.468,1.359-2.201,2.039c3.015,2.928,7.242,2.854,11.174,3.847
				c4.815,1.217,10.165,1.375,15.101,1.888c4.472,0.464,15.229-0.321,17.33-5.586c2.457-6.159-10.199-7.705-13.784-8.104
				c-5.191-0.578-10.715,0.311-15.867,0.986c-4.622,0.605-10.671,0.774-14.624,3.453C168.238,298.845,169.605,301.518,171.2,300.438
				L171.2,300.438z"/>
		</g>
	</g>
	<g>
		<g>
			<path fill="#FFFFFF" d="M172.538,298.757c-4.07,1.009-7.603,4.082-10.944,6.512c-4.283,3.118-8.403,6.411-12.283,10.024
				c-3.536,3.295-10.115,13.435-4.954,17.945c4.687,4.095,12.048-4.31,14.581-7.541c2.699-3.444,4.928-7.224,6.638-11.25
				c0.957-2.254,1.504-4.577,2.307-6.874c0.623-1.782,1.792-5.729,3.179-6.935c-0.68-0.733-1.359-1.467-2.039-2.201
				c-0.08,0.075-0.161,0.149-0.241,0.224c-1.417,1.312,0.62,3.516,2.039,2.202c0.08-0.074,0.161-0.149,0.241-0.224
				c1.42-1.314-0.582-3.466-2.039-2.201c-2.989,2.597-3.686,7.549-4.868,11.222c-2.141,6.648-5.973,13.45-11.176,18.201
				c-0.829,0.757-2.556,2.697-3.859,2.697c-4.749-0.002-3.126-3.782-2.402-6.03c1.328-4.126,4.167-6.657,7.293-9.429
				c2.597-2.303,5.308-4.45,8.099-6.515c3.312-2.451,6.991-5.883,11.076-6.897C175.062,301.222,174.414,298.291,172.538,298.757
				L172.538,298.757z"/>
		</g>
	</g>
</g>
</svg>
