<?xml version="1.0" encoding="utf-8"?>
<!-- Generator: Adobe Illustrator 16.0.0, SVG Export Plug-In . SVG Version: 6.00 Build 0)  -->
<!DOCTYPE svg PUBLIC "-//W3C//DTD SVG 1.1//EN" "http://www.w3.org/Graphics/SVG/1.1/DTD/svg11.dtd">
<svg version="1.1" id="Layer_1" xmlns="http://www.w3.org/2000/svg" xmlns:xlink="http://www.w3.org/1999/xlink" x="0px" y="0px"
	 width="595.28px" height="841.89px" viewBox="0 0 595.28 841.89" enable-background="new 0 0 595.28 841.89" xml:space="preserve">
<g>
	<g>
		<g>
			<path fill="#FFFFFF" d="M288.476,426.893c-7.435,10.422-4.596,27.396,6.443,34.406c11.367,7.219,26.607,1.308,34.97-7.735
				c8.487-9.179,12.584-24.269,10.147-36.558c-2.824-14.247-16.582-27.879-30.505-31.374c-31.81-7.987-59.867,28.106-65.043,55.864
				c-6.143,32.939,14.522,67.227,39.244,87.525c16.124,13.238,35.243,22.692,54.981,29.21c10.131,3.346,20.555,6.084,31.035,8.085
				c10.335,1.973,20.464,1.72,30.881,2.529c1.929,0.149,2.055-2.848,0.13-2.998c-7.538-0.585-15.059-0.158-22.577-1.164
				c-8.122-1.087-16.121-2.977-24.039-5.056c-15.23-3.999-30.119-9.325-44.029-16.763c-27.326-14.611-51.074-38.386-60.536-68.513
				c-8.88-28.276,2.381-58.158,25.131-76.538c12.55-10.139,29.717-14.228,43.962-4.944c12.001,7.82,20.423,20.909,18.712,35.452
				c-1.766,15.01-10.781,30.318-26.889,32.735c-8.413,1.263-16.093-1.593-20.202-9.341c-3.937-7.422-4.252-16.252,0.727-23.23
				C292.139,426.915,289.596,425.322,288.476,426.893L288.476,426.893z"/>
		</g>
	</g>
	<g>
		<g>
			<path fill="#FFFFFF" d="M402.095,567.443c6.381-5.511,13.41-7.358,21.682-7.887c2.923-0.186,13.41,0.268,8.461,5.125
				c-2.805,2.753-8.674,3.361-12.437,3.391c-3.495,0.026-6.748-0.946-10.176-1.313c-1.193-0.127-6.813,0.566-7.519-0.505
				c-1.099-1.666,3.63-7.931,4.778-9.528c1.709-2.376,3.339-4.48,6.478-5.16c2.452-0.529,3.485-0.93,2.073,0.906
				c-3.799,4.94-9.415,7.738-14.528,10.947c-1.759,1.104-4.009,2.777-2.094,4.836c0.527,0.565,1.618,0.685,2.237,0.967
				c1.906,0.871,3.721,2.088,5.244,3.524c2.256,2.126,4.803,4.656,5.214,7.731c0.446,3.328-2.065,5.714-5.479,3.396
				c-1.9-1.291-3.288-4.135-3.938-6.139c-0.998-3.077-2.926-8.304-1.099-11.258c-0.792,0.072-1.585,0.145-2.377,0.217
				c0.225,0.209,0.45,0.417,0.675,0.625c1.406,1.304,3.63-0.712,2.212-2.026c-0.226-0.208-0.45-0.417-0.675-0.626
				c-0.701-0.649-1.83-0.668-2.377,0.217c-2.79,4.511-0.534,11.086,1.39,15.639c1.514,3.584,6.063,9.676,10.659,8.571
				c3.921-0.942,4.41-5.784,4.043-9.071c-0.374-3.355-1.795-4.645-4.034-7.049c-1.089-1.171-2.05-2.34-3.278-3.377
				c-1.064-0.897-3.234-1.715-4.061-2.771c-0.55-0.701-1.09,0.038-0.896-0.736c0.17-0.68,3.574-1.985,4.066-2.253
				c3.077-1.667,5.388-3.737,7.935-6.174c1.609-1.54,6.964-5.101,5.039-7.991c-2.253-3.381-9.334-0.464-11.567,1.397
				c-4.346,3.62-8.157,10.574-8.828,16.191c-0.063,0.534,0.28,1.052,0.701,1.337c2.32,1.575,6.545,1.007,9.246,1.235
				c4.13,0.35,8.092,1.426,12.302,1.199c5.159-0.277,15.248-1.991,15.618-8.818c0.354-6.528-9.555-5.894-13.62-5.602
				c-8.878,0.639-16.276,2.727-23.099,8.618C398.605,566.494,400.634,568.704,402.095,567.443L402.095,567.443z"/>
		</g>
	</g>
	<g>
		<g>
			<path fill="#FFFFFF" d="M365.322,561.078c-0.129,0.069-0.258,0.139-0.387,0.209c0.717,0.339,1.434,0.679,2.149,1.019
				c-0.628-2.284,2.327-6.047,3.599-7.683c1.099-1.412,2.242-2.792,3.472-4.092c1.629-1.722,2.259-3.191,4.591-2.192
				c2.575,1.103,1.018,1.797-0.572,3.542c-1.053,1.157-2.224,2.268-3.398,3.295c-3.004,2.625-6.445,4.814-10.082,6.442
				c0.565,0.813,1.132,1.628,1.697,2.441c0.091-0.071,0.182-0.142,0.272-0.213c1.52-1.191-0.515-3.397-2.027-2.212
				c-0.091,0.071-0.182,0.143-0.272,0.213c-1.389,1.089,0.222,3.103,1.697,2.442c3.448-1.544,25.25-15.326,15.488-19.928
				c-4.766-2.246-8.71,2.983-11.391,6.158c-2.388,2.827-7.158,8.228-6.006,12.419c0.25,0.908,1.258,1.5,2.15,1.019
				c0.129-0.069,0.258-0.139,0.386-0.208C368.389,562.833,367.023,560.161,365.322,561.078L365.322,561.078z"/>
		</g>
	</g>
	<g>
		<g>
			<path fill="#FFFFFF" d="M363.665,561.152c-0.111,0.007-0.222,0.014-0.333,0.02c-0.732,0.043-1.218,0.383-1.499,1.056
				c-2.731,6.54-3.228,12.905-0.075,19.441c1.948,4.039,6.495,9.279,11.553,7.863c5.868-1.644,4.28-7.608,2.144-11.668
				c-1.68-3.189-3.303-6.156-5.521-8.988c-1.959-2.501-5.064-3.806-6.621-6.695c-0.468,0.728-0.935,1.454-1.401,2.182
				c0.195,0.028,0.39,0.057,0.585,0.085c1.912,0.275,2.027-2.724,0.131-2.998c-0.195-0.027-0.391-0.056-0.586-0.084
				c-1.133-0.164-1.899,1.256-1.4,2.182c1.508,2.798,4.199,4.397,6.272,6.684c2.731,3.013,4.814,6.619,6.574,10.279
				c0.302,0.746,0.604,1.493,0.906,2.239c-1.255,1.3-2.511,2.6-3.766,3.899c-0.795,0.11-2.636-1.604-3.165-2.095
				c-1.92-1.782-3.175-4.187-3.985-6.655c-1.699-5.174-0.818-9.896,1.224-14.784c-0.5,0.352-0.999,0.703-1.499,1.056
				c0.111-0.007,0.223-0.014,0.333-0.02C365.446,564.037,365.594,561.039,363.665,561.152L363.665,561.152z"/>
		</g>
	</g>
	<g>
		<g>
			<path fill="#FFFFFF" d="M333.157,553.056c-1.44-3.108,1.99-9.718,3.712-12.097c1.935-2.671,4.339-4.943,7.313-6.406
				c1.798-0.885,6.314-2.552,4.478,1.448c-1.471,3.201-6.691,6.406-9.151,8.649c-2.232,2.036-5.875,6.053-8.984,6.553
				c-1.911,0.308-1.266,3.238,0.635,2.933c2.229-0.358,4.294-2.337,6.068-3.679c3.694-2.794,7.044-6.061,10.455-9.193
				c2.254-2.07,8.476-7.91,3.588-10.703c-4.772-2.727-12.498,3.494-15.255,6.661c-3.268,3.756-7.926,12.03-5.529,17.2
				C331.3,556.178,333.968,554.804,333.157,553.056L333.157,553.056z"/>
		</g>
	</g>
	<g>
		<g>
			<path fill="#FFFFFF" d="M331.265,551.626c-0.062-0.066-0.123-0.134-0.184-0.2c-0.737,0.676-1.475,1.352-2.212,2.027
				c3.593,3.918,7.081,7.806,9.803,12.402c1.052,1.775,2.328,3.708,3.055,5.644c1.079,2.877,0.299,8.701-4.302,6.105
				c-4.708-2.657-5.785-10.24-5.771-15.086c0.005-1.603-1.085-7.257-0.254-8.399c1.135-1.56-1.409-3.15-2.543-1.594
				c-1.094,1.504-0.645,3.387-0.518,5.14c0.32,4.432,0.441,8.737,1.431,13.118c1.023,4.532,4.853,10.766,10.119,11.012
				c5.622,0.264,6.293-6.067,5.062-10.206c-2.278-7.655-8.624-14.442-13.87-20.163c-1.305-1.423-3.519,0.602-2.212,2.027
				c0.062,0.066,0.122,0.133,0.184,0.2C330.357,555.076,332.571,553.052,331.265,551.626L331.265,551.626z"/>
		</g>
	</g>
	<g>
		<g>
			<path fill="#FFFFFF" d="M303.764,538.794c-2.543-3.291,9.253-11.38,11.252-12.505c1.737-0.978,11.817-6.191,12.344-2.96
				c0.297,1.822-3.434,4.765-4.771,5.775c-2.068,1.564-4.455,2.691-6.835,3.69c-2.415,1.014-4.898,1.86-7.337,2.816
				c-2.349,0.921-4.668,2.445-7.116,3.026c-1.88,0.446-1.246,3.379,0.634,2.933c3.812-0.904,7.442-3.143,11.133-4.537
				c4.032-1.525,8.094-3.072,11.549-5.717c2.505-1.917,9.582-9.549,3.949-11.932c-5.009-2.117-14.45,3.602-18.151,6.265
				c-3.877,2.789-13.014,9.799-8.862,15.171C302.732,542.349,304.938,540.313,303.764,538.794L303.764,538.794z"/>
		</g>
	</g>
	<g>
		<g>
			<path fill="#FFFFFF" d="M300.725,537.928c-3.564-1.576-6.124,5.593-6.968,7.992c-2.399,6.829,0.381,14.341,4.989,19.555
				c4.132,4.676,9.783-0.102,10.119-5.092c0.276-4.108-1.299-8.537-1.794-12.629c-0.469-3.863-2.424-6.5-3.701-10.025
				c-0.657-1.813-3.321-0.426-2.672,1.366c0.687,1.896,1.92,3.465,2.579,5.392c0.713,2.087,0.815,4.174,1.06,6.348
				c0.271,2.408,1.019,4.678,1.367,7.053c0.289,1.97,0.192,2.311-0.788,4.242c-0.337,2.212-1.29,2.508-2.859,0.887
				c-1.322-0.243-2.179-0.968-2.567-2.174c-2.936-3.518-4.274-7.942-3.285-12.473c0.123-0.564,2.852-7.92,3.634-7.574
				C301.6,541.574,302.476,538.703,300.725,537.928L300.725,537.928z"/>
		</g>
	</g>
	<g>
		<g>
			<path fill="#FFFFFF" d="M270.509,511.031c0.521-4.153,11.039-8.037,14.426-9.615c2.777-1.293,5.668-2.501,8.686-3.105
				c2.208-0.442,11.952-0.822,7.959,4.338c-2.668,3.449-12.208,4.293-16.197,4.839c-2.73,0.374-5.441,0.776-8.164,1.196
				c-0.882,0.135-4.982,1.256-5.706,0.646c-1.456-1.228-3.686,0.784-2.212,2.026c1.861,1.569,3.983,0.882,6.253,0.57
				c5.216-0.719,10.587-1.26,15.732-2.38c4.026-0.876,16.646-3.512,14.742-10.091c-2.005-6.929-13.712-4.166-18.105-2.543
				c-5.114,1.89-10.16,4.525-14.795,7.395c-2.42,1.498-5.238,3.594-5.615,6.594C267.271,512.819,270.27,512.938,270.509,511.031
				L270.509,511.031z"/>
		</g>
	</g>
	<g>
		<g>
			<path fill="#FFFFFF" d="M269.984,510.724c0.054-0.103,0.106-0.206,0.16-0.308c0.529-1.018-0.25-2.701-1.589-2.264
				c-3.199,1.045-6.023,4.477-8.246,6.919c-2.715,2.981-4.901,6.456-6.217,10.275c-1.462,4.241-1.052,10.453,3.734,12.528
				c5.266,2.282,10.234-4.5,11.239-8.884c0.931-4.062,0.385-8.538,0.767-12.683c0.289-3.139,0.678-6.454-0.682-9.41
				c-0.319-0.692-1.351-1.067-2.02-0.652c-0.126,0.079-0.253,0.157-0.379,0.236c-1.631,1.013-0.274,3.689,1.366,2.671
				c0.127-0.078,0.253-0.157,0.38-0.235c-0.674-0.218-1.347-0.436-2.02-0.652c1.811,3.935,0.023,9.385-0.013,13.525
				c-0.022,2.541,0.235,5.201-0.623,7.653c-0.86,2.458-3.798,6.435-6.651,5.429c-5.158-1.815-2.329-9.176-0.558-12.391
				c1.305-2.367,2.977-4.52,4.885-6.433c1.478-1.482,3.667-4.31,5.671-4.965c-0.529-0.755-1.06-1.509-1.589-2.264
				c-0.053,0.103-0.106,0.206-0.16,0.309C266.558,510.829,269.09,512.441,269.984,510.724L269.984,510.724z"/>
		</g>
	</g>
	<g>
		<g>
			<path fill="#FFFFFF" d="M249.055,475.473c5.249-3.519,14.798-3.368,20.877-3.84c3.654-0.283,7.083-0.427,10.681,0.352
				c1.347,0.291,3.032,0.583,4.316,1.085c1.173,0.044,2.017,0.615,2.531,1.712c1.653,1.004,1.571,1.742-0.244,2.215
				c-3.449,3.086-10.593,2.443-14.646,1.901c-4.02-0.537-8.243-0.585-12.188-1.539c-2.256-0.546-8.355-1.62-9.829-3.065
				c-1.369-1.344-3.519,0.587-2.211,2.027c0.077,0.085,0.154,0.17,0.231,0.256c1.298,1.43,3.511-0.596,2.212-2.027
				c-0.077-0.086-0.155-0.17-0.232-0.256c-0.737,0.676-1.475,1.352-2.211,2.027c2.999,2.943,7.228,2.891,11.153,3.904
				c4.809,1.242,10.158,1.427,15.091,1.966c4.47,0.487,15.231-0.243,17.358-5.497c2.488-6.146-10.159-7.758-13.742-8.175
				c-5.188-0.604-10.717,0.256-15.871,0.904c-4.626,0.582-10.676,0.72-14.642,3.378
				C246.101,473.864,247.454,476.545,249.055,475.473L249.055,475.473z"/>
		</g>
	</g>
	<g>
		<g>
			<path fill="#FFFFFF" d="M250.4,473.799c-4.075,0.988-7.624,4.043-10.977,6.456c-4.299,3.096-8.437,6.367-12.334,9.961
				c-3.553,3.276-10.185,13.383-5.046,17.919c4.666,4.119,12.07-4.248,14.618-7.466c2.717-3.43,4.965-7.198,6.695-11.216
				c0.969-2.25,1.528-4.569,2.343-6.862c0.632-1.778,1.821-5.72,3.215-6.918c-0.676-0.737-1.352-1.475-2.027-2.212
				c-0.081,0.074-0.162,0.148-0.242,0.223c-1.424,1.305,0.602,3.519,2.026,2.212c0.081-0.074,0.162-0.148,0.243-0.223
				c1.426-1.308-0.564-3.469-2.027-2.212c-3.002,2.582-3.725,7.53-4.926,11.196c-2.175,6.638-6.042,13.419-11.27,18.144
				c-0.832,0.752-2.569,2.684-3.872,2.677c-4.748-0.026-3.107-3.798-2.371-6.042c1.35-4.119,4.201-6.636,7.341-9.391
				c2.609-2.29,5.332-4.423,8.133-6.474c3.324-2.434,7.021-5.847,11.111-6.84C252.912,476.276,252.279,473.343,250.4,473.799
				L250.4,473.799z"/>
		</g>
	</g>
</g>
<g>
	<g>
		<g>
			<path fill="#FFFFFF" d="M383.799,426.805c4.068-10.988,4.23-21.052-1.56-31.519c-4.854-8.775-13.366-15.441-22.058-20.167
				c-9.086-4.94-19.174-7.768-29.454-8.673c-9.985-0.879-21.441-1.754-31.046,1.706c-10.241,3.69-19.925,10.082-28.7,16.402
				c-4.437,3.194-8.829,6.471-13.54,9.258c-6.239,3.69-12.578,5.521-19.637,6.91c-6.66,1.31-15.133,2.812-20.592-2.396
				c-3.705-3.532-4.453-12.284-2.161-16.587c2.391-4.489,11.666-15.191,15.831-7.148c3.396,6.554,0.31,13.171-5.068,17.313
				c-5.998,4.618-14.477,6.479-21.957,6.354c-8.194-0.136-14.475-3.69-19.704-9.84c-4.522-5.319-9.293-10.599-11.37-17.402
				c-0.919-3.009-1.739-6.316-1.933-9.456c-0.208-3.391,0.929-6.623,0.684-10.018c-0.067-0.936-2.978-0.332-2.897,0.777
				c0.245,3.396-0.95,6.627-0.684,10.017c0.269,3.411,1.112,6.98,2.183,10.221c2.11,6.39,6.575,11.229,10.786,16.328
				c8.041,9.736,18.433,12.403,30.648,10.218c9.31-1.665,23.318-7.014,23.495-18.398c0.141-9.021-6.452-14.146-14.162-8.475
				c-3.798,2.793-8.625,7.725-9.742,12.43c-0.907,3.816-0.192,10.319,2.136,13.529c6.662,9.184,22.68,4.794,31.56,2.629
				c12.987-3.168,23.12-12.371,33.955-19.642c5.922-3.974,12.432-7.735,18.965-10.602c7.681-3.369,16.103-3.259,24.345-2.938
				c16.75,0.651,32.949,5.017,46.114,15.822c6.181,5.072,11.179,11.145,13.854,18.766c3.055,8.703,1.949,16.471-1.188,24.943
				C380.55,428.12,383.441,427.771,383.799,426.805L383.799,426.805z"/>
		</g>
	</g>
	<g>
		<g>
			<path fill="#FFFFFF" d="M382.743,423.917c-9.431,3.19-14.093,13.432-16.228,22.353c-1.533,6.409-4.454,20.496,2.982,24.66
				c0.729,0.408,2.031-0.046,2.502-0.67c0.805-1.067,0.892-2.102,1.318-3.331c0.837-2.406,2.221-4.681,3.487-6.897
				c2.797-4.898,5.667-9.762,8.245-14.782c1.762-3.43,2.877-7.365,2.854-11.241c-0.017-2.631-0.048-8.2-2.449-9.934
				c-0.827-0.598-3.482,0.563-2.691,1.134c2.719,1.962,2.391,9.673,2.02,12.294c-0.627,4.422-2.75,8.096-4.811,11.97
				c-2.156,4.058-4.467,7.993-6.701,12.005c-0.776,1.393-1.701,2.811-2.311,4.288c-0.602,1.462-0.684,3.141-1.658,4.434
				c0.834-0.224,1.668-0.446,2.502-0.67c-6.184-3.463-3.999-16.146-2.905-21.334c0.845-4.004,1.851-8.029,3.626-11.731
				c1.947-4.063,6.079-9.565,10.605-11.098C384.808,424.799,384.473,423.331,382.743,423.917L382.743,423.917z"/>
		</g>
	</g>
	<g>
		<g>
			<path fill="#FFFFFF" d="M383.741,422.727c8.374-0.101,19.053,2.406,25.156,8.554c5.849,5.89,9.65,16.452,8.711,24.804
				c0.867-0.295,1.734-0.589,2.602-0.883c-2.114-0.806-3.833-2.624-5.696-3.863c-1.813-1.206-3.787-2.071-5.668-3.152
				c-3.909-2.247-7.779-5.771-10.68-9.214c-2.69-3.193-5.898-7.264-7.746-10.996c-0.447-0.902-3.352-6.775-2.607-7.396
				c1.27-1.061-1.6-1.081-2.323-0.476c-1.625,1.356,0.481,4.967,1.078,6.425c1.584,3.866,4.042,6.641,6.469,10.007
				c3.249,4.506,6.891,8.611,11.491,11.843c1.756,1.232,3.762,2.015,5.607,3.091c2.658,1.551,4.905,4.043,7.77,5.134
				c0.641,0.244,2.496,0.056,2.602-0.883c1.016-9.032-3.093-20.569-9.995-26.582c-6.599-5.749-17.121-8.156-25.642-8.055
				C383.783,421.097,381.795,422.75,383.741,422.727L383.741,422.727z"/>
		</g>
	</g>
	<g>
		<g>
			<path fill="#FFFFFF" d="M386.536,422.689c-0.022-0.089-0.045-0.177-0.067-0.266c-0.244-0.972-2.166-0.211-2.61,0.151
				c-2.361,1.923-3.378,5.862-4.768,8.519c-1.741,3.331-2.631,6.383-2.88,10.147c-0.078,1.173,2.833,0.609,2.897-0.363
				c0.239-3.625,1.001-6.461,2.681-9.723c1.151-2.236,2.384-6.469,4.393-8.104c-0.87,0.05-1.74,0.1-2.61,0.15
				c0.022,0.088,0.044,0.176,0.066,0.265C383.891,424.468,386.794,423.712,386.536,422.689L386.536,422.689z"/>
		</g>
	</g>
	<g>
		<g>
			<path fill="#FFFFFF" d="M386.143,421.866c-0.057,0.037-0.113,0.074-0.171,0.112c-0.367,0.241-0.704,0.565-0.446,0.996
				c1.647,2.746,3.727,5.042,6.382,6.849c1.386,0.943,2.864,1.788,4.399,2.464c1.896,0.836,4.109,1.094,5.808,2.303
				c0.831,0.592,3.481-0.571,2.691-1.134c-2.649-1.886-6.062-2.324-8.896-3.974c-3.255-1.894-5.763-4.427-7.692-7.642
				c-0.149,0.332-0.298,0.664-0.447,0.996c0.058-0.037,0.114-0.074,0.171-0.111C389.574,421.651,387.07,421.256,386.143,421.866
				L386.143,421.866z"/>
		</g>
	</g>
	<g>
		<g>
			<path fill="#FFFFFF" d="M372.566,383.052c5.807-4.763,12.748-8.064,20.502-6.808c5.406,0.876,12.262,3.245,16.665,6.666
				c0.515-0.456,1.029-0.912,1.544-1.368c-2.423,0.328-4.468,0.193-6.775,0.973c-3.424,1.154-6.579,2.975-10.067,3.986
				c-8.104,2.349-14.76,0.107-21.876-3.606c-0.836-0.436-3.498,0.78-2.307,1.402c6.375,3.326,11.854,5.41,19.214,4.728
				c2.784-0.258,5.443-1.046,8.063-1.998c4.581-1.666,8.459-3.218,13.353-3.881c0.296-0.04,2.329-0.759,1.544-1.369
				c-12.903-10.025-29.962-9.222-42.182,0.8C368.967,383.623,371.839,383.648,372.566,383.052L372.566,383.052z"/>
		</g>
	</g>
	<g>
		<g>
			<path fill="#FFFFFF" d="M370.842,383.635c3.004-0.105,5.878-0.973,8.881-1.123c4.045-0.203,7.931-0.075,11.904,0.698
				c0.925,0.18,3.408-1.256,1.774-1.574c-3.677-0.715-6.994-0.866-10.759-0.818c-3.624,0.045-7.089,1.049-10.674,1.175
				C370.894,382.03,368.9,383.703,370.842,383.635L370.842,383.635z"/>
		</g>
	</g>
	<g>
		<g>
			<path fill="#FFFFFF" d="M351.192,374.396c-1.671,3.566-4.068,6.513-5.228,10.343c-1.033,3.418-1.53,7.109-1.702,10.665
				c-0.295,6.071,1.572,12.27,2.708,18.201c0.215,1.126,2.629,0.091,2.897-0.57c3.328-8.211,10.715-15.527,10.936-24.776
				c0.132-5.532-1.148-8.725-3.532-13.574c-0.94-1.912-1.328-3.52-3.676-3.637c-1.105-0.056-3.079,1.546-1.127,1.643
				c1.287,0.064,3.956,6.354,4.446,7.551c1.537,3.76,1.42,9.336,0.177,13.164c-2.328,7.174-7.297,13.026-10.121,19.993
				c0.966-0.19,1.932-0.38,2.897-0.569c-1.214-6.342-3.133-12.926-2.585-19.41c0.279-3.307,0.782-6.711,1.856-9.857
				c1.208-3.542,3.409-6.239,4.95-9.528C354.494,373.17,351.63,373.461,351.192,374.396L351.192,374.396z"/>
		</g>
	</g>
	<g>
		<g>
			<path fill="#FFFFFF" d="M353.146,373.038c0.01,6.839-0.703,13.399-1.954,20.121c-0.205,1.102,2.713,0.628,2.897-0.363
				c1.277-6.863,1.964-13.555,1.955-20.534C356.044,371.369,353.146,371.913,353.146,373.038L353.146,373.038z"/>
		</g>
	</g>
	<g>
		<g>
			<path fill="#FFFFFF" d="M325.554,366.789c-2.54-5.23,0.765-11.357,4.63-15.028c2.915-2.769,6.084-4.087,9.856-5.356
				c1.421-0.479,4.915-2.02,5.084-0.617c0.11,0.914-2.38,4.355-2.813,5.217c-1.016,2.021-2.075,3.909-3.402,5.751
				c-3.744,5.198-7.073,10.429-14.24,10.383c-1.092-0.007-3.077,1.631-1.127,1.643c6.151,0.039,10.721-2.153,14.458-7.148
				c4.048-5.41,8.358-11.422,10.998-17.64c0.139-0.326-0.315-0.576-0.562-0.605c-5.908-0.689-13.511,2.419-18.188,5.924
				c-5.219,3.91-10.872,11.5-7.592,18.255C323.139,368.559,325.968,367.641,325.554,366.789L325.554,366.789z"/>
		</g>
	</g>
	<g>
		<g>
			<path fill="#FFFFFF" d="M325.845,368.381c1.367-2.654,3.3-4.918,4.848-7.459c0.696-1.143,1.279-2.328,2.15-3.354
				c0.835-0.983,1.794-1.7,2.384-2.869c0.62-1.229-2.269-0.912-2.698-0.061c-0.56,1.11-1.536,1.812-2.324,2.751
				c-0.893,1.064-1.492,2.295-2.21,3.473c-1.548,2.541-3.479,4.803-4.848,7.458C322.518,369.54,325.407,369.229,325.845,368.381
				L325.845,368.381z"/>
		</g>
	</g>
</g>
<g>
	<g>
		<g>
			<path fill="#FFFFFF" d="M371.097,252.039c-16.593,15.222-31.622,32.616-46.267,49.69c-14.36,16.745-27.888,34.02-40.654,52.002
				c-0.443,0.624,1.809,1.71,2.358,0.936c13.019-18.337,26.848-35.933,41.523-52.977c14.324-16.633,28.997-33.582,45.188-48.435
				C373.943,252.616,371.726,251.463,371.097,252.039L371.097,252.039z"/>
		</g>
	</g>
	<g>
		<g>
			<path fill="#FFFFFF" d="M360.164,264.521c-0.536-1.753,0.747-4.749,1.416-6.337c0.819-1.948,1.884-3.972,2.99-5.774
				c-0.572-0.008-1.145-0.017-1.719-0.024c0.073,0.036,0.146,0.073,0.219,0.11c1.052,0.529,2.612-0.115,1.078-0.888
				c-0.072-0.037-0.145-0.073-0.218-0.11c-0.429-0.216-1.373-0.586-1.719-0.025c-1.241,2.024-2.485,4.328-3.296,6.557
				c-0.58,1.595-1.669,4.209-1.15,5.902C358.018,264.756,360.407,265.315,360.164,264.521L360.164,264.521z"/>
		</g>
	</g>
	<g>
		<g>
			<path fill="#FFFFFF" d="M360.363,266.997c3.014-0.707,5.985-1.563,8.924-2.543c2.19-0.73,4.791-1.313,6.66-2.729
				c0.717-0.543-1.458-1.741-2.149-1.217c-1.958,1.485-4.886,2.083-7.191,2.834c-2.651,0.862-5.331,1.614-8.044,2.252
				C357.527,265.837,359.586,267.179,360.363,266.997L360.363,266.997z"/>
		</g>
	</g>
	<g>
		<g>
			<path fill="#FFFFFF" d="M354.604,269.969c-4.062-3.341-1.212-10.269-0.852-14.639c0.067-0.804-2.315-1.599-2.398-0.591
				c-0.432,5.236-3.197,11.783,1.655,15.774C353.732,271.108,355.88,271.018,354.604,269.969L354.604,269.969z"/>
		</g>
	</g>
	<g>
		<g>
			<path fill="#FFFFFF" d="M354.34,272.081c3.178,1.058,6.361,1.19,9.68,0.817c1.672-0.187,3.355-0.431,5.009-0.75
				c1.704-0.329,3.056-1.251,4.703-1.654c1.038-0.255-1.023-1.595-1.799-1.405c-1.189,0.292-2.155,1.004-3.331,1.354
				c-1.32,0.394-2.788,0.53-4.152,0.727c-3.205,0.463-6.512,0.774-9.641-0.268C353.385,270.429,352.876,271.595,354.34,272.081
				L354.34,272.081z"/>
		</g>
	</g>
	<g>
		<g>
			<path fill="#FFFFFF" d="M349.934,275.328c-2.308-1.929-2.636-6.489-3.066-9.288c-0.221-1.43-0.338-2.872-0.455-4.313
				c-0.092-1.126-0.52-2.869-0.141-3.962c0.293-0.847-2.073-1.758-2.358-0.937c-0.409,1.179-0.043,2.612,0.062,3.828
				c0.18,2.081,0.371,4.142,0.742,6.201c0.555,3.073,1.092,6.901,3.623,9.016C349.06,276.475,351.203,276.388,349.934,275.328
				L349.934,275.328z"/>
		</g>
	</g>
	<g>
		<g>
			<path fill="#FFFFFF" d="M350.349,276.615c6.438,0.543,12.596,0.824,19.031,0.373c1.399-0.099-0.537-1.553-1.337-1.497
				c-6.221,0.438-12.259,0.157-18.48-0.366C347.916,274.986,349.419,276.537,350.349,276.615L350.349,276.615z"/>
		</g>
	</g>
	<g>
		<g>
			<path fill="#FFFFFF" d="M343.393,280.352c-1.996,1.121-3.68-3.663-4.016-4.879c-0.334-1.214-0.514-2.454-0.599-3.708
				c-0.188-2.731-0.344-6.357,0.411-9c-0.472,0.041-0.942,0.081-1.413,0.121c0.076,0.032,0.152,0.063,0.23,0.095
				c1.406,0.577,1.881-0.599,0.468-1.179c-0.076-0.032-0.154-0.063-0.23-0.096c-0.294-0.121-1.271-0.374-1.412,0.122
				c-0.709,2.479-0.561,5.656-0.5,8.235c0.065,2.789,0.551,5.878,2.063,8.288c1.324,2.112,4.594,4.65,7.146,3.218
				C346.254,281.168,344.153,279.925,343.393,280.352L343.393,280.352z"/>
		</g>
	</g>
	<g>
		<g>
			<path fill="#FFFFFF" d="M345.65,281.995c-0.047-0.037-0.095-0.072-0.142-0.107c-0.446,0.238-0.892,0.477-1.338,0.717
				c3.144,1.629,7.706,1.171,11.182,1.055c4.698-0.156,10.408,0,14.767-1.922c1.051-0.463-1.06-1.729-1.8-1.404
				c-3.479,1.534-8.061,1.531-11.812,1.728c-2.023,0.106-4.078,0.237-6.101,0.105c-1.287-0.085-4.042,0.128-5.157-0.45
				c-0.684-0.354-2.615-0.247-1.336,0.717c0.047,0.035,0.095,0.07,0.143,0.107C344.793,283.095,346.968,282.986,345.65,281.995
				L345.65,281.995z"/>
		</g>
	</g>
	<g>
		<g>
			<path fill="#FFFFFF" d="M338.692,287.688c-3.48-2.738-4.624-8.287-5.36-12.393c-0.484-2.693-1.666-7.588-0.393-10.125
				c0.379-0.754-1.946-1.754-2.357-0.936c-0.799,1.59-0.358,3.363-0.217,5.076c0.224,2.69,0.473,5.268,1.095,7.908
				c0.944,4.011,2.295,8.385,5.638,11.014C337.828,288.81,339.99,288.71,338.692,287.688L338.692,287.688z"/>
		</g>
	</g>
	<g>
		<g>
			<path fill="#FFFFFF" d="M339.386,287.968c-0.064-0.022-0.128-0.045-0.191-0.067c-0.356-0.123-1.786-0.358-1.37,0.483
				c1.891,3.826,7.119,3.618,10.759,3.792c6.004,0.286,11.359-0.526,17.151-1.809c1.031-0.228-1.023-1.576-1.801-1.404
				c-3.538,0.784-6.796,1.491-10.443,1.667c-2.826,0.136-11.791,1.21-13.393-2.032c-0.457,0.161-0.914,0.321-1.371,0.482
				c0.063,0.022,0.127,0.044,0.191,0.066C340.338,289.641,340.84,288.474,339.386,287.968L339.386,287.968z"/>
		</g>
	</g>
	<g>
		<g>
			<path fill="#FFFFFF" d="M331.436,295.185c-0.08,0.031-0.161,0.063-0.241,0.094c-0.387,0.149-0.346,0.52-0.101,0.788
				c2.993,3.276,9.254,3.744,13.437,4.001c5.68,0.347,12.464,0.481,17.874-1.355c0.867-0.295-0.299-1.169-0.666-1.291
				c-0.179-0.061-0.359-0.121-0.54-0.181c-1.422-0.476-1.931,0.689-0.468,1.179c0.18,0.061,0.359,0.121,0.54,0.182
				c-0.223-0.432-0.444-0.861-0.666-1.293c-3.885,1.32-8.548,1.297-12.607,1.318c-2.078,0.012-4.169,0.027-6.233-0.238
				c-1.393-0.179-7.427-2.227-8.528-1.799C334.289,296.181,332.188,294.893,331.436,295.185L331.436,295.185z"/>
		</g>
	</g>
	<g>
		<g>
			<path fill="#FFFFFF" d="M324.126,303.604c3.021,4.134,9.929,3.875,14.486,4.051c3.246,0.125,6.448-0.071,9.665-0.516
				c2.641-0.364,5.588-0.439,7.897-1.853c0.718-0.438-1.404-1.672-2.148-1.216c-3.124,1.91-9.009,1.969-12.608,2.105
				c-3.592,0.138-12.838,0.617-15.294-2.744C325.645,302.774,323.281,302.448,324.126,303.604L324.126,303.604z"/>
		</g>
	</g>
	<g>
		<g>
			<path fill="#FFFFFF" d="M317.229,311.122c2.826,4.069,9.045,4.5,13.542,5.1c7.405,0.986,15.435,0.163,22.826-0.687
				c1.406-0.162-0.532-1.589-1.336-1.497c-4.685,0.539-9.532,0.865-14.247,0.988c-2.68,0.069-5.369,0.055-8.029-0.296
				c-2.863-0.376-8.686-0.806-10.484-3.396C319.055,310.693,316.623,310.253,317.229,311.122L317.229,311.122z"/>
		</g>
	</g>
	<g>
		<g>
			<path fill="#FFFFFF" d="M313.713,319.646c-0.037-0.028-0.074-0.057-0.11-0.084c-0.728-0.541-2.906-0.482-1.595,0.545
				c4.216,3.305,11.318,2.865,16.389,3.006c7.092,0.197,14.857,0.205,21.834-1.119c0.499-0.096,0.68-0.399,0.331-0.834
				c-0.029-0.036-0.058-0.072-0.087-0.107c-0.505-0.631-2.889-0.94-1.998,0.17c-1.173-1.461-4.863-0.229-6.543-0.078
				c-3.154,0.282-6.321,0.425-9.487,0.482c-3.147,0.056-6.251-0.053-9.388-0.271c-2.944-0.206-7.043,0.099-9.456-1.793
				c-0.532,0.182-1.063,0.364-1.595,0.545c0.036,0.029,0.074,0.057,0.11,0.084C312.857,320.739,315.035,320.628,313.713,319.646
				L313.713,319.646z"/>
		</g>
	</g>
	<g>
		<g>
			<path fill="#FFFFFF" d="M305.528,327.249c-0.071,3.195,10.329,3.217,12.073,3.253c10.465,0.218,20.461-2.216,30.688-3.841
				c0.496-0.079,0.688-0.416,0.331-0.834c-0.03-0.035-0.061-0.072-0.091-0.107c-0.521-0.611-2.918-0.908-1.999,0.172
				c-0.809-0.95-1.681-0.322-2.741-0.084c-2.398,0.542-4.809,1.072-7.234,1.482c-3.426,0.578-6.889,0.835-10.345,1.156
				c-1.659,0.154-18.326,1.324-18.284-0.606C307.945,327.017,305.551,326.258,305.528,327.249L305.528,327.249z"/>
		</g>
	</g>
	<g>
		<g>
			<path fill="#FFFFFF" d="M299.504,334.999c0.604,4.969,14.977,3.375,18.229,3.318c4.825-0.082,9.961-0.313,14.693-1.264
				c3.446-0.692,8.406-1.244,11.182-3.578c-0.717-0.405-1.433-0.811-2.149-1.217c-0.071,0.092-0.141,0.184-0.212,0.276
				c-0.613,0.802,1.659,1.857,2.15,1.216c0.07-0.092,0.141-0.184,0.211-0.275c0.625-0.816-1.537-1.731-2.149-1.217
				c-1.955,1.645-5.095,1.981-7.523,2.602c-3.689,0.941-7.265,1.287-11.042,1.565c-2.291,0.169-20.686,1.668-20.99-0.836
				C301.8,334.743,299.392,334.075,299.504,334.999L299.504,334.999z"/>
		</g>
	</g>
	<g>
		<g>
			<path fill="#FFFFFF" d="M332.147,294.882c-3.862-2.859-4.343-8.389-4.73-12.813c-0.165-1.875-0.267-3.756-0.347-5.638
				c-0.068-1.638-0.645-4.186,0.056-5.732c0.355-0.785-1.985-1.759-2.358-0.937c-0.719,1.591-0.196,3.643-0.124,5.345
				c0.126,3.016,0.26,6.04,0.655,9.034c0.574,4.329,1.609,8.588,5.255,11.285C331.293,295.975,333.473,295.862,332.147,294.882
				L332.147,294.882z"/>
		</g>
	</g>
	<g>
		<g>
			<path fill="#FFFFFF" d="M325.256,303.28c-2.066-1.063-2.796-6.55-3.426-8.659c-0.814-2.728-1.376-5.522-1.638-8.357
				c-0.505-5.454,0.241-10.853,1.288-16.199c0.18-0.915-2.203-1.725-2.357-0.937c-1.307,6.671-2.054,13.313-0.848,20.071
				c0.622,3.481,1.753,6.873,2.846,10.23c0.634,1.947,1.163,3.763,3.056,4.737C325.227,304.708,326.781,304.066,325.256,303.28
				L325.256,303.28z"/>
		</g>
	</g>
	<g>
		<g>
			<path fill="#FFFFFF" d="M319.897,310.994c-4.445-4.008-5.983-10.955-6.839-16.667c-0.848-5.656-0.889-11.657,0.393-17.242
				c0.206-0.902-2.175-1.736-2.358-0.936c-1.514,6.598-1.369,13.831,0.09,20.427c1.222,5.527,2.793,11.062,7.12,14.964
				C319.006,312.174,321.125,312.103,319.897,310.994L319.897,310.994z"/>
		</g>
	</g>
	<g>
		<g>
			<path fill="#FFFFFF" d="M312.203,317.795c-0.143,0.081-0.286,0.162-0.43,0.243c0.437,0.006,0.873,0.013,1.309,0.02
				c-2.147-0.918-3.657-6.688-4.551-8.813c-1.292-3.068-2.454-6.207-3.289-9.433c-1.591-6.138-1.871-12.343,0.373-18.363
				c0.311-0.832-2.052-1.76-2.358-0.937c-3.158,8.475-1.325,17.286,1.793,25.497c0.949,2.498,4.614,15.653,9.304,13.003
				C315.066,318.607,312.964,317.364,312.203,317.795L312.203,317.795z"/>
		</g>
	</g>
	<g>
		<g>
			<path fill="#FFFFFF" d="M307.933,327.867c-5.046-5.663-7.867-13.913-9.904-21.095c-2.003-7.056-2.229-12.889-1.146-20.102
				c0.141-0.93-2.242-1.707-2.357-0.937c-1.159,7.71-0.803,14.238,1.5,21.792c2.174,7.13,4.884,14.872,9.908,20.512
				C306.465,328.635,308.871,328.921,307.933,327.867L307.933,327.867z"/>
		</g>
	</g>
	<g>
		<g>
			<path fill="#FFFFFF" d="M299.533,333.557c-2.932-2.354-4.271-8.246-5.299-11.624c-0.924-3.037-1.739-6.106-2.379-9.215
				c-1.459-7.094-1.752-13.679-0.637-20.833c0.144-0.929-2.238-1.711-2.358-0.937c-1.279,8.205-0.714,15.902,1.227,23.999
				c1.388,5.789,2.954,15.223,7.852,19.154C298.665,334.686,300.82,334.591,299.533,333.557L299.533,333.557z"/>
		</g>
	</g>
	<g>
		<g>
			<path fill="#FFFFFF" d="M294.533,343.126c-5.016-4.796-6.527-13.131-8.29-19.518c-1.841-6.672-3.776-14.688-2.309-21.598
				c0.192-0.909-2.189-1.73-2.357-0.937c-1.617,7.612,0.608,16.069,2.673,23.39c1.772,6.281,3.371,14.134,8.285,18.833
				C293.1,343.837,295.534,344.081,294.533,343.126L294.533,343.126z"/>
		</g>
	</g>
	<g>
		<g>
			<path fill="#FFFFFF" d="M293.596,345.802c7.858-0.828,15.818,0.704,23.711-0.189c6.309-0.714,13.397-2.437,18.586-6.232
				c0.718-0.525-1.449-1.729-2.149-1.217c-12.302,9-27.605,4.68-41.483,6.143C290.854,344.454,292.793,345.887,293.596,345.802
				L293.596,345.802z"/>
		</g>
	</g>
</g>
<g>
	<g>
		<g>
			<path fill="#FFFFFF" d="M242.715,280.909c-8.229,2.133-15.855,9.678-22.327,14.94c-6.927,5.635-13.633,11.404-19.967,17.703
				c-6.551,6.513-13.372,12.813-19.512,19.724c-4.901,5.512-10.825,12.521-13.228,19.578c-0.234,0.686,1.233,1.459,1.76,1.266
				c0.089-0.032,0.178-0.064,0.267-0.096c0.726-0.268-0.86-1.776-1.586-1.511c-0.089,0.033-0.178,0.065-0.267,0.097
				c0.587,0.424,1.176,0.846,1.763,1.268c1.233-3.623,4.025-7.319,6.15-10.53c2.399-3.628,5.313-6.967,8.243-10.171
				c5.81-6.355,12.131-12.242,18.235-18.311c6.729-6.69,13.882-12.794,21.263-18.75c6.085-4.912,13.073-11.697,20.793-13.697
				C244.997,282.239,243.465,280.715,242.715,280.909L242.715,280.909z"/>
		</g>
	</g>
	<g>
		<g>
			<path fill="#FFFFFF" d="M216.592,300.834c2.34-5.497,4.51-11.027,6.904-16.507c2.574-5.889,6.069-9.527,10.719-13.863
				c2.132-1.987,4.204-3.967,6.488-5.791c3.544-2.828,6.612-2.781,10.926-2.851c6.041-0.099,11.733-2.012,17.646-2.972
				c-0.53-0.438-1.061-0.874-1.59-1.311c-1.779,5.224-3.76,10.13-4.992,15.559c-1.784,7.848-5.6,12.855-12.202,17.318
				c-5.057,3.42-10.803,5.02-16.404,7.199c-5.969,2.321-12.948,4.002-19.428,3.42c0.441,0.48,0.886,0.963,1.327,1.444
				c0.057-0.077,0.115-0.154,0.173-0.232c0.462-0.62-1.355-1.949-1.827-1.313c-0.058,0.078-0.114,0.154-0.171,0.232
				c-0.429,0.574,0.883,1.403,1.325,1.443c5.619,0.506,11.932-0.438,17.269-2.252c6.508-2.208,13.578-4.564,19.323-8.43
				c5.649-3.804,9.559-7.766,11.613-14.326c1.996-6.366,3.783-12.738,5.929-19.039c0.207-0.61-1.09-1.39-1.591-1.309
				c-6.477,1.05-12.542,2.898-19.159,2.957c-6.317,0.057-9.404,2.351-13.993,6.512c-4.901,4.445-9.726,8.56-12.511,14.689
				c-2.723,5.992-5.029,12.064-7.6,18.106C214.44,300.286,216.319,301.473,216.592,300.834L216.592,300.834z"/>
		</g>
	</g>
	<g>
		<g>
			<path fill="#FFFFFF" d="M210.008,305.891c-3.508-4.278-7.744-7.936-11.158-12.262c-2.869-3.631-6.637-10.031-7.631-14.646
				c-1.195-5.563,1.311-9.373,4.96-13.106c1.589-1.627,3.006-3.395,4.274-5.278c1.196-1.773,1.689-4.497,3.855-3.11
				c1.186,0.756,2.44,2.782,3.472,3.849c1.837,1.896,3.828,3.607,5.673,5.484c3.65,3.717,2.93,9.96,1.735,14.74
				c-1.192,4.774-3.136,9.288-4.078,14.137c-0.595,3.057-2.357,7.48-1.704,10.611c0.146,0.692,2.114,1.66,1.91,0.674
				c-0.53-2.538,1.01-5.99,1.473-8.418c0.547-2.867,1.064-5.619,1.938-8.42c1.807-5.793,4.287-12.315,3.271-18.543
				c-0.652-3.99-5.229-6.994-7.852-9.664c-2.21-2.252-4.87-6.474-8.243-7.16c-0.168-0.035-0.383-0.011-0.5,0.13
				c-1.385,1.653-2.312,3.789-3.587,5.557c-1.638,2.271-3.729,3.951-5.584,6.003c-2.794,3.094-3.874,7.804-2.921,11.843
				c2.732,11.593,12.044,18.967,19.206,27.706C209.037,306.647,210.936,307.021,210.008,305.891L210.008,305.891z"/>
		</g>
	</g>
	<g>
		<g>
			<path fill="#FFFFFF" d="M208.255,309.77c4.664,1.341,9.423,1.148,14.168,0.377c5.295-0.86,10.549-3.108,15.991-1.521
				c7.795,2.275,11.771,10.289,15.231,16.86c0.98,1.859,3.09,4.147,3.681,6.131c0.548,1.839,0.645,0.754-1.191,1.114
				c-4.255,0.839-7.924,2.849-12.365,2.935c-7.885,0.152-12.875-4.244-18.021-9.686c-5.906-6.248-11.564-12.464-18.499-17.509
				c-1.088-0.793-1.753,0.116-0.656,0.913c9.378,6.822,15.82,16.854,25.095,23.804c4.062,3.045,7.909,4.379,13.024,4.166
				c5.172-0.214,9.873-3.35,14.934-2.636c0.186,0.025,0.56,0.005,0.554-0.275c-0.023-1.395-0.951-2.394-1.679-3.581
				c-1.629-2.664-3.184-5.26-4.595-8.054c-2.724-5.393-6.434-10.267-11.559-13.587c-10.839-7.026-22.785,2.454-34.467-0.903
				C206.491,307.913,207.448,309.538,208.255,309.77L208.255,309.77z"/>
		</g>
	</g>
	<g>
		<g>
			<path fill="#FFFFFF" d="M207.242,307.812c-5.53-3.632-10.186-7.83-15.263-12.042c-3.538-2.937-7.082-5.915-11.795-6.385
				c-4.641-0.463-9.712,1.025-13.719,3.226c-2.278,1.251-8.859,3.1-8.265,6.465c0.433,2.441,3.479,5.047,5.168,6.738
				c3.107,3.111,6.538,5.817,10.791,7.046c5.811,1.68,10.209,0.774,16.062,0.307c5.621-0.448,11.655-2.033,16.911-4.1
				c-0.451-0.164-0.902-0.325-1.353-0.489c0.085,0.073,0.17,0.145,0.256,0.217c0.794,0.675,2.279,0.456,1.118-0.531
				c-0.085-0.072-0.17-0.145-0.256-0.216c-0.339-0.29-0.879-0.677-1.352-0.491c-4.077,1.604-8.438,2.388-12.69,3.438
				c-3.325,0.822-7.928,1.488-11.381,1.637c-5.63,0.24-11.119-2.193-15.27-5.807c-2.224-1.935-7.487-5.979-4.74-9.068
				c1.833-2.059,6.125-3.69,8.678-4.826c5.501-2.447,11.614-2.866,16.817,0.391c3.889,2.434,7.078,5.904,10.465,8.944
				c2.825,2.539,5.992,4.381,9.159,6.463C207.7,309.459,208.385,308.563,207.242,307.812L207.242,307.812z"/>
		</g>
	</g>
	<g>
		<g>
			<path fill="#FFFFFF" d="M206.487,309.228c0.434,3.535,3.119,6.74,4.527,9.969c1.933,4.432,4.563,9.17,5.966,13.762
				c1.405,4.601-0.111,8.721-1.767,13.006c-0.768,1.986-1.631,4.105-2.966,5.774c-0.769,0.961-3.415,4.288-4.516,4.453
				c-1.757,0.265-5.396-5.839-6.722-7.462c-1.618-1.977-4.348-4.384-5.082-6.885c-0.69-2.352,0.191-5.729,0.894-8.023
				c1.335-4.361,2.698-9.013,4.605-13.174c1.51-3.293,3.916-5.971,5.893-8.987c-0.49-0.13-0.98-0.26-1.472-0.391
				c0.094,0.079,0.188,0.157,0.282,0.236c0.798,0.663,2.289,0.44,1.119-0.533c-0.095-0.077-0.188-0.155-0.283-0.234
				c-0.24-0.198-1.155-0.876-1.473-0.392c-2.459,3.751-5.074,6.797-6.734,11.015c-1.982,5.032-4.466,10.971-4.872,16.387
				c-0.39,5.19,3.146,8.066,6.251,11.863c1.935,2.366,3.649,5.706,5.775,7.772c0.431,0.418,1.066,1.027,1.688,1.121
				c2.063,0.313,5.387-4.094,6.474-5.453c2.496-3.126,4.629-8.721,5.321-12.701c0.814-4.69-1.132-8.202-3.021-12.288
				c-1.424-3.075-2.537-6.282-3.939-9.364c-1.277-2.805-3.659-5.678-4.042-8.797C208.312,309.199,206.361,308.201,206.487,309.228
				L206.487,309.228z"/>
		</g>
	</g>
	<g>
		<g>
			<path fill="#FFFFFF" d="M206.188,310.261c0.986,1.838-0.359,4.751-0.371,6.77c-0.015,2.73,0.393,5.492,0.561,8.215
				c0.167,2.716,0.329,5.374,0.628,8.079c0.201,1.849,1.085,4.698,0.761,6.499c-0.133,0.736,1.785,1.858,1.936,1.024
				c0.339-1.867-0.538-4.828-0.711-6.583c-0.271-2.751-0.511-5.482-0.671-8.241c-0.206-3.56-0.882-7.17-0.355-10.727
				c0.275-1.866,0.896-3.048-0.02-4.755C207.61,309.922,205.598,309.161,206.188,310.261L206.188,310.261z"/>
		</g>
	</g>
	<g>
		<g>
			<path fill="#FFFFFF" d="M203.459,306.604c-5.311,1.24-13.687-0.542-18.678-2.448c-2.54-0.97-6.43-3.921-9.258-2.92
				c-0.722,0.257,0.859,1.769,1.588,1.511c1.667-0.592,5.226,1.645,6.635,2.252c1.921,0.829,3.805,1.345,5.851,1.773
				c4.515,0.945,10.503,2.503,15.108,1.428C205.712,307.963,204.156,306.44,203.459,306.604L203.459,306.604z"/>
		</g>
	</g>
	<g>
		<g>
			<path fill="#FFFFFF" d="M202.409,276.835c-0.772,2.268-0.21,4.569,0.186,6.877c0.615,3.585,1.208,7.177,1.832,10.759
				c1.115,6.397,4.313,11.575,7.933,16.891c0.474,0.694,2.315,1.087,1.489-0.124c-3.837-5.632-6.721-11.13-7.8-17.913
				c-0.705-4.419-3.185-11.118-1.704-15.466C204.575,277.183,202.699,275.986,202.409,276.835L202.409,276.835z"/>
		</g>
	</g>
	<g>
		<g>
			<path fill="#FFFFFF" d="M210.318,311.171c1.079-0.222,2.915,1.42,3.876,1.854c2.845,1.285,6.025,1.984,8.945,3.112
				c7.019,2.707,15.412,5.104,20.865,10.548c0.755,0.755,2.193,0.541,1.119-0.531c-5.256-5.246-13.017-7.922-19.814-10.513
				c-4.037-1.54-8.371-2.661-12.247-4.523c-1.12-0.539-2.643-1.817-3.989-1.541C208.066,309.783,209.617,311.315,210.318,311.171
				L210.318,311.171z"/>
		</g>
	</g>
</g>
</svg>
