<?xml version="1.0" encoding="utf-8"?>
<!-- Generator: Adobe Illustrator 16.0.0, SVG Export Plug-In . SVG Version: 6.00 Build 0)  -->
<!DOCTYPE svg PUBLIC "-//W3C//DTD SVG 1.1//EN" "http://www.w3.org/Graphics/SVG/1.1/DTD/svg11.dtd">
<svg version="1.1" id="Layer_1" xmlns="http://www.w3.org/2000/svg" xmlns:xlink="http://www.w3.org/1999/xlink" x="0px" y="0px"
	 width="960px" height="560px" viewBox="0 0 960 560" enable-background="new 0 0 960 560" xml:space="preserve">
<g>
	<g>
		<g>
			<path fill="#FFFFFF" d="M558.439,269.163c-2.676-0.218-4.898-3.178-6.779-4.884c-2.592-2.354-5.182-4.673-7.658-7.152
				c-4.79-4.8-8.212-9.975-11.527-15.851c-6.943-12.307-8.783-25.582-10.98-39.321c-2.019-12.615-3.502-24.807-8.26-36.78
				c-4.254-10.707-9.955-23.013-18.223-31.251c-0.573,0.74-1.146,1.479-1.719,2.218c5.327,3.553,9.99,7.923,15.061,11.811
				c5.73,4.392,12.08,7.875,17.384,12.817c4.929,4.593,9.136,9.885,13.321,15.145c4.527,5.692,8.896,11.068,12.087,17.652
				c3.01,6.213,5.117,12.545,7.42,19.032c2.279,6.419,4.017,12.418,4.638,19.225c0.518,5.675,1.639,11.289,1.115,16.988
				c-0.295,3.225-0.703,6.24-1.617,9.364c-1.139,3.89-1.441,7.604-4.479,10.618c-1.291,1.282,0.689,3.304,1.985,2.018
				c2.382-2.363,3.259-3.89,3.948-7.087c0.686-3.183,1.979-6.231,2.518-9.44c0.947-5.607,0.646-11.149-0.051-16.753
				c-0.838-6.728-1.107-13.149-3.264-19.629c-2.301-6.913-4.275-14.24-7.398-20.825c-6.416-13.528-15.662-25.748-26.242-36.378
				c-5.221-5.246-11.313-8.885-17.259-13.193c-6.083-4.408-11.491-9.642-17.749-13.814c-1.341-0.894-2.836,1.104-1.719,2.218
				c4.911,4.893,8.631,11.719,11.855,17.818c3.378,6.396,6.268,13.072,8.439,19.976c4.17,13.253,5.059,27.382,7.359,41.036
				c2.225,13.205,6.756,25.391,14.425,36.449c3.637,5.244,8.509,9.698,13.249,13.93c2.923,2.611,5.934,6.537,10.096,6.877
				C560.234,272.143,560.247,269.312,558.439,269.163L558.439,269.163z"/>
		</g>
	</g>
	<g>
		<g>
			<path fill="#FFFFFF" d="M555.854,271.559c5.209,5.442-15.852,11.597-18.744,12.349c-8.422,2.191-17.498,3.15-26.133,4.049
				c-16.297,1.695-31.451-0.973-46.503-7.279c-14.732-6.172-29.111-13.718-42.047-23.131c-13.086-9.522-24.546-21.146-37.595-30.583
				c-0.36,0.864-0.72,1.728-1.079,2.591c13.701,3.941,28.64,3.449,42.719,3.612c7.208,0.083,14.343,1.694,21.531,2.198
				c7.25,0.509,14.438,1.317,21.669,2.029c15.672,1.543,30.503,5.934,44.494,13.185c6.836,3.542,13.906,6.703,20.639,10.427
				c6.474,3.581,12.25,7.993,18.489,11.914c-0.173-0.645-0.345-1.29-0.517-1.934c-0.094,0.137-0.188,0.273-0.282,0.41
				c-1.032,1.499,1.422,2.913,2.451,1.418c0.095-0.137,0.188-0.273,0.282-0.41c0.445-0.646,0.092-1.554-0.516-1.935
				c-6.229-3.914-12.015-8.342-18.49-11.915c-7.256-4.003-14.856-7.46-22.232-11.253c-12.258-6.304-25.849-10.707-39.566-12.267
				c-14.357-1.631-28.768-3.028-43.143-4.41c-7.369-0.707-14.729,0.293-22.113-0.484c-8.189-0.861-16.729-1.033-24.675-3.318
				c-1.634-0.47-2.317,1.696-1.08,2.591c5.978,4.323,11.095,9.437,16.779,14.132c5.861,4.842,11.862,9.619,17.886,14.258
				c11.626,8.95,24.685,16.229,38.023,22.291c12.52,5.688,25.217,10.379,39.071,11.154c13.641,0.764,28.621-1.16,41.871-4.398
				c6.047-1.477,13.939-3.4,18.688-7.711c2.682-2.436,5.109-6.463,2.141-9.564C556.611,268.257,554.592,270.241,555.854,271.559
				L555.854,271.559z"/>
		</g>
	</g>
	<g>
		<g>
			<path fill="#FFFFFF" d="M456.482,232.751c-7.767-7.911-15.297-15.947-21.506-25.168c-2.843-4.222-5.738-8.418-8.399-12.759
				c-2.763-4.507-6.237-9.393-8.012-14.388c-0.694,0.524-1.388,1.048-2.082,1.573c3.554,2.629,5.448,6.88,8.995,9.601
				c3.072,2.357,6.692,3.918,10.113,5.689c8.255,4.271,16.309,8.692,24.645,12.778c4.28,2.097,8.602,4.239,12.67,6.727
				c4.004,2.45,7.432,5.632,11.1,8.534c2.978,2.355,6.189,4.61,8.815,7.344c2.909,3.029,7.426,7.022,8.778,11.091
				c0.794-0.447,1.588-0.894,2.382-1.34c-0.212-0.23-0.426-0.461-0.638-0.689c-1.239-1.339-3.256,0.647-2.02,1.984
				c0.214,0.229,0.427,0.46,0.639,0.689c0.924,0.998,2.83,0.006,2.383-1.34c-2.152-6.469-8.991-12.348-14.168-16.448
				c-7.715-6.112-14.869-11.979-23.653-16.54c-8.806-4.573-17.604-8.956-26.374-13.599c-4.256-2.253-8.908-4.119-12.778-7.018
				c-3.739-2.801-5.72-7.138-9.473-9.915c-0.955-0.707-2.474,0.469-2.081,1.573c1.686,4.743,4.791,9.217,7.354,13.536
				c2.904,4.892,6.151,9.577,9.327,14.293c6.351,9.431,14.015,17.682,21.962,25.776C455.74,236.036,457.76,234.053,456.482,232.751
				L456.482,232.751z"/>
		</g>
	</g>
	<g>
		<g>
			<path fill="#FFFFFF" d="M502.495,244.129c0.692,0.749,1.055,0.967,2.067,0.913c1.006-0.053,1.842-1.146,1.248-2.104
				c-4.295-6.947-8.209-14.006-11.323-21.569c-2.953-7.17-6.521-14.126-9.224-21.382c-2.508-6.731-6.564-12.3-10.734-18.075
				c-1.978-2.739-4.135-5.214-6.21-7.857c-1.264-1.609-4.232-3.326-4.667-5.342c-0.694,0.524-1.388,1.049-2.082,1.573
				c2.12,1.335,3.559,3.083,5.854,4.199c2.45,1.191,5.071,2.016,7.594,3.036c6.135,2.481,12.014,5.167,17.797,8.383
				c5.27,2.931,10.644,6.047,14.836,10.422c1.869,1.95,3.676,3.953,5.582,5.872c1.364,1.374,4.547,3.442,4.842,5.435
				c0.267,1.804,3.009,1.09,2.744-0.695c-0.535-3.612-6.15-7.267-8.494-9.701c-4.286-4.448-8.416-8.188-13.76-11.373
				c-5.205-3.103-10.557-6.004-16.162-8.3c-3.339-1.367-6.668-2.745-10.016-4.09c-3.733-1.5-6.156-3.598-9.398-5.639
				c-1.072-0.675-2.328,0.431-2.082,1.572c0.393,1.822,1.775,2.875,3.043,4.132c1.925,1.907,3.652,4.105,5.46,6.15
				c5.735,6.491,10.645,14.472,13.675,22.536c2.525,6.717,5.915,13.103,8.617,19.758c3.187,7.843,7.188,15.141,11.635,22.333
				c0.416-0.702,0.832-1.403,1.248-2.105c-0.023-0.022-0.048-0.044-0.072-0.066C503.275,240.807,501.259,242.792,502.495,244.129
				L502.495,244.129z"/>
		</g>
	</g>
	<g>
		<g>
			<path fill="#FFFFFF" d="M547.288,266.795c8.946,8.368,18.959,15.501,29.936,20.968c5.032,2.508,10.274,4.773,15.64,6.467
				c5.776,1.82,11.555,1.871,17.395,3.18c1.771,0.396,2.525-2.332,0.74-2.732c-5.256-1.178-10.609-1.195-15.832-2.705
				c-5.702-1.65-11.216-4.02-16.523-6.66c-10.757-5.348-20.57-12.302-29.337-20.503
				C547.979,263.567,545.954,265.547,547.288,266.795L547.288,266.795z"/>
		</g>
	</g>
	<g>
		<g>
			<path fill="#FFFFFF" d="M503.773,146.271c6.842,9.666,13.103,19.545,17.906,30.412c2.457,5.561,3.451,11.181,4.945,16.98
				c1.383,5.364,0.887,11.4,1.088,16.916c0.402,10.917,3.096,20.298,8.094,29.962c2.721,5.259,5.359,10.342,9.025,15.027
				c3.525,4.506,7.426,9.006,10.334,13.942c0.693,1.178,2.549,0.146,1.855-1.034c-2.686-4.559-6.218-8.771-9.469-12.936
				c-3.797-4.859-6.801-9.837-9.557-15.349c-2.795-5.592-5.141-10.822-6.732-16.931c-1.574-6.031-1.664-12.457-1.737-18.673
				c-0.262-22.391-11.232-41.46-23.897-59.352C504.846,144.133,502.984,145.157,503.773,146.271L503.773,146.271z"/>
		</g>
	</g>
	<g>
		<g>
			<path fill="#FFFFFF" d="M509.38,151.237c4.112,4.181,8.233,8.349,12.372,12.502c4.717,4.733,8.372,10.576,11.619,16.407
				c5.457,9.8,9.174,21.799,9.408,33.022c0.203,9.87-1.018,19.585,0.92,29.405c1.016,5.136,2.881,9.798,5.25,14.446
				c1.229,2.412,2.425,4.838,3.638,7.258c1.346,2.688,3.621,5.243,4.66,8.026c0.595-0.335,1.19-0.67,1.786-1.006
				c-0.213-0.229-0.426-0.459-0.639-0.689c-0.928-1.002-2.441,0.487-1.514,1.49c0.213,0.229,0.426,0.459,0.639,0.689
				c0.68,0.732,2.162,0.002,1.786-1.006c-0.784-2.096-2.14-3.674-3.287-5.578c-1.556-2.58-2.742-5.391-4.108-8.073
				c-2.779-5.455-5.193-10.795-6.293-16.863c-2.065-11.383,0.178-22.743-1.12-34.117c-1.103-9.677-4.755-20.348-9.673-28.764
				c-3.013-5.155-6.119-10.483-10.252-14.827c-4.459-4.689-9.139-9.197-13.679-13.813
				C509.936,148.775,508.42,150.262,509.38,151.237L509.38,151.237z"/>
		</g>
	</g>
	<g>
		<g>
			<path fill="#FFFFFF" d="M515.994,155.595c3.959,3.955,8.003,7.849,11.597,12.146c3.981,4.76,6.931,10.128,9.956,15.514
				c5.355,9.533,12.898,17.973,15.059,28.924c1.978,10.022,2.183,19.8,1.41,29.929c-0.378,4.957,0.328,10.194,0.33,15.196
				c0.002,3.719-0.541,8.164,1.609,11.432c0.747,1.137,2.605,0.109,1.854-1.033c-2.851-4.334-1.179-11.942-1.307-16.905
				c-0.067-2.638-0.546-5.271-0.431-7.911c0.111-2.545,0.563-5.021,0.592-7.582c0.102-9.358-0.393-19.05-3.07-28.088
				c-2.853-9.63-10.188-17.869-15.07-26.571c-5.744-10.236-12.738-18.271-21.016-26.54
				C516.541,153.141,515.025,154.628,515.994,155.595L515.994,155.595z"/>
		</g>
	</g>
	<g>
		<g>
			<path fill="#FFFFFF" d="M390.701,232.548c-0.018,0.097-0.034,0.192-0.051,0.289c-0.109,0.615,0.171,1.073,0.747,1.303
				c6.297,2.513,13.341,4.554,20.08,5.421c6.487,0.833,13.121-0.108,19.646,0.47c3.429,0.303,6.742,1.147,10.144,1.567
				c4.066,0.501,7.952,0.341,12.015,1.18c7.043,1.452,14.004,3.178,21.076,4.519c13.537,2.567,26.969,6.759,40.136,10.848
				c7.222,2.242,14.558,5.271,21.235,8.856c2.893,1.554,5.686,3.284,8.584,4.827c3.503,1.865,7.438,3.342,10.45,5.988
				c1.015,0.891,2.515-0.539,1.515-1.488c-0.092-0.088-0.183-0.174-0.273-0.26c-0.988-0.939-2.508,0.545-1.514,1.488
				c0.09,0.086,0.182,0.174,0.272,0.26c0.505-0.496,1.01-0.992,1.515-1.488c-5.061-4.444-12.182-7.095-18.049-10.367
				c-5.793-3.231-12.176-6.201-18.441-8.389c-6.687-2.333-13.518-4.184-20.381-5.898c-7.033-1.757-13.682-4.444-20.834-5.744
				c-7.766-1.412-15.43-3.111-23.125-4.845c-6.75-1.52-13.703-1.802-20.546-2.754c-6.69-0.933-13.328-0.434-20.041-0.639
				c-7.578-0.231-15.904-2.807-22.907-5.602c0.249,0.434,0.498,0.869,0.747,1.303c0.017-0.097,0.034-0.192,0.052-0.29
				C392.988,231.769,390.941,231.198,390.701,232.548L390.701,232.548z"/>
		</g>
	</g>
	<g>
		<g>
			<path fill="#FFFFFF" d="M390.03,232.562c6.637,4.144,13.214,8.461,20.476,11.45c7.099,2.924,14.577,5.108,21.841,7.593
				c7.375,2.523,14.921,4.444,22.448,6.452c7.871,2.099,15.599,4.945,23.531,6.737c7.336,1.655,14.537,4.317,21.918,5.698
				c6.477,1.212,12.743,3.322,19.241,4.336c3.498,0.545,6.956,1.325,10.463,1.827c3.499,0.504,6.813,0.238,10.31,0.326
				c5.982,0.15,11.271,1.447,16.9-1.293c0.702-0.343,0.731-1.501,0.017-1.849c-0.198-0.096-0.396-0.192-0.595-0.288
				c-1.221-0.593-2.297,1.239-1.064,1.838c0.199,0.097,0.396,0.193,0.596,0.289c0.004-0.616,0.01-1.231,0.014-1.847
				c-6.01,2.925-13.658,1.257-20.121,1.163c-6.542-0.094-13.636-1.468-20.034-2.924c-13.485-3.067-27.055-6.385-40.39-10.088
				c-14.192-3.94-28.74-7.66-42.677-12.429c-7.609-2.604-15.531-4.813-22.899-8.041c-6.661-2.92-12.759-6.951-18.909-10.79
				C389.936,230,388.87,231.837,390.03,232.562L390.03,232.562z"/>
		</g>
	</g>
	<g>
		<g>
			<path fill="#FFFFFF" d="M393.063,230.759c1.983,5.437,8.561,9.041,12.907,12.389c6.229,4.799,12.671,9.3,19.522,13.174
				c7.122,4.028,15.334,6.31,23.104,8.721c8.428,2.613,16.929,5.544,25.006,9.098c3.28,1.443,5.938,2.674,9.419,3.482
				c4.323,1.004,8.758,2.041,12.951,3.498c7.383,2.568,14.61,5.916,22.639,5.727c3.676-0.088,7.438-0.367,11.121-0.561
				c3.087-0.162,5.485-1.127,8.123-2.719c5.814-3.51,12.631-5.695,17.78-10.305c1.018-0.913-0.474-2.425-1.489-1.515
				c-4.982,4.462-11.686,6.528-17.324,9.964c-3.732,2.273-7.129,2.318-11.395,2.396c-3.55,0.064-6.907,0.781-10.473,0.307
				c-7.702-1.025-14.123-4.234-21.49-6.328c-3.639-1.035-7.383-1.914-11.064-2.768c-3.526-0.816-6.747-2.609-10.084-4.029
				c-13.72-5.835-28.599-8.82-42.154-14.998c-6.237-2.844-12.422-6.904-17.894-11.021c-3.443-2.591-6.847-5.23-10.245-7.882
				c-2.541-1.982-5.739-3.961-6.903-7.151C394.656,228.963,392.595,229.476,393.063,230.759L393.063,230.759z"/>
		</g>
	</g>
	<g>
		<g>
			<path fill="#FFFFFF" d="M468.511,174.368c6.767,6.88,13.523,13.771,20.305,20.636c3.757,3.803,7.594,7.574,10.633,12
				c2.686,3.912,4.748,8.212,7.227,12.25c4.678,7.615,8.908,15.464,13.979,22.862c4.911,7.164,11.083,13.098,17.149,19.266
				c0.959,0.975,2.473-0.514,1.514-1.489c-6.811-6.924-13.408-13.552-18.749-21.73c-2.515-3.85-4.841-7.664-6.896-11.766
				c-1.967-3.926-4.734-7.421-6.93-11.236c-4.715-8.201-9.754-14.903-16.414-21.645c-6.783-6.865-13.538-13.756-20.305-20.637
				C469.067,171.905,467.552,173.392,468.511,174.368L468.511,174.368z"/>
		</g>
	</g>
	<g>
		<g>
			<path fill="#FFFFFF" d="M476.648,179.831c4.247,0.151,9.069,3.953,12.368,6.417c4.652,3.476,8.637,7.521,12.701,11.641
				c3.43,3.478,6.85,6.966,10.275,10.45c3.729,3.793,6.091,7.48,8.77,11.997c0.697,1.175,2.553,0.144,1.854-1.033
				c-2.646-4.462-4.816-8.093-8.503-11.834c-4.434-4.499-8.865-9.002-13.288-13.511c-4.073-4.151-8.351-8.065-13.196-11.314
				c-3.217-2.157-6.972-4.794-10.963-4.936C475.297,177.659,475.283,179.782,476.648,179.831L476.648,179.831z"/>
		</g>
	</g>
	<g>
		<g>
			<path fill="#FFFFFF" d="M479.353,187.756c4.964,5.649,8.69,11.73,12.403,18.22c3.25,5.68,6.848,10.833,9.716,16.732
				c5.13,10.546,10.333,20.532,18.025,29.525c0.888,1.038,2.398-0.454,1.515-1.489c-8.22-9.608-13.665-20.505-19.006-31.841
				c-2.706-5.741-6.631-10.794-9.734-16.344c-3.277-5.865-6.969-11.242-11.405-16.292
				C479.963,185.24,478.453,186.732,479.353,187.756L479.353,187.756z"/>
		</g>
	</g>
	<g>
		<g>
			<path fill="#FFFFFF" d="M423.007,190.419c5.896,5.021,10.836,11.442,17.346,15.66c3.775,2.447,7.402,4.905,11.098,7.472
				c3.084,2.142,6.513,3.56,9.549,5.814c5.458,4.054,12.66,4.629,19.057,6.479c3.856,1.114,8.75,1.853,12.216,3.912
				c3.352,1.991,6.707,5.423,9.349,8.246c0.935,0.999,2.448-0.49,1.515-1.488c-4.994-5.338-9.684-8.981-16.737-10.985
				c-3.93-1.117-7.797-2.284-11.778-3.205c-3.9-0.903-8.35-1.902-11.665-4.135c-2.949-1.984-5.955-3.664-8.983-5.528
				c-3.432-2.112-6.291-4.794-9.806-6.771c-7.604-4.279-13.054-11.347-19.646-16.96
				C423.489,188.051,421.966,189.532,423.007,190.419L423.007,190.419z"/>
		</g>
	</g>
	<g>
		<g>
			<path fill="#FFFFFF" d="M422.594,193.154c11.593,11.787,22.772,25.478,37.884,32.938c3.04,1.5,6.423,2.088,9.546,3.419
				c3.338,1.422,6.518,2.316,10.084,2.973c3.892,0.717,7.214,2.38,10.73,4.172c3.582,1.825,8.21,3.613,11.135,6.438
				c0.98,0.947,2.498-0.537,1.513-1.489c-2.402-2.32-5.886-3.788-8.802-5.345c-2.814-1.503-5.709-3.097-8.661-4.315
				c-3.56-1.467-7.369-1.558-11.013-2.711c-3.286-1.038-6.36-2.584-9.657-3.618c-8.298-2.602-16.5-9.024-22.622-15.032
				c-6.313-6.195-12.421-12.611-18.624-18.917C423.15,190.691,421.634,192.179,422.594,193.154L422.594,193.154z"/>
		</g>
	</g>
</g>
<g>
	<g>
		<path fill="#FFFFFF" d="M568.921,138.148c-0.099-0.339-0.198-0.677-0.298-1.017c-0.251-0.852-2.822,0.484-2.619,1.363
			c0.922,4.007,0.407,7.521-0.754,11.452c-0.469,1.586-1.55,3.628-0.998,5.327c0.674,2.07,2.673,2.514,4.6,2.958
			c2.982,0.688,4.506,0.191,2.301,3.094c-2.063,2.717-4.913,7.475-1.912,10.359c3.72,3.572,12.375,1.92,15.009,6.908
			c0.297-0.474,0.593-0.948,0.89-1.421c-3.961,2.212-14.302-4.48-14.903,2.3c-0.243,2.73,0.462,5.746,0.563,8.49
			c0.063,1.733-0.496,3.502,0.375,5.086c2.523,4.584,9.891,5.012,13.262,8.764c0.188-0.397,0.375-0.794,0.563-1.191
			c-3.542,2.719-9.69-3.545-13.612-0.721c-2.398,1.728-1.129,7.185-0.221,9.32c1.734,4.075,7.535,6.881,11.303,8.721
			c5.347,2.611,11.647,4.523,17.276,6.382c9.464,3.126,17.294-7.194,21.848-14.148c3.126-4.776,4.88-10.939,6.116-16.459
			c0.586-2.616,0.977-5.48,1.035-8.148c0.035-1.592,0.344-5.119-0.627-6.528c-0.286-0.416-0.955-0.173-1.316-0.044
			c-2.296,0.819-4.455,2.95-6.405,4.284c-1.212,0.829-2.524,1.599-3.649,2.55c-1.414,1.195-2.513,3.212-4.174,4.05
			c0.405,0.242,0.812,0.484,1.217,0.726c1.762-3.462,3.306-7.123,4.727-10.737c0.959-2.439,2.254-4.864,1.703-7.499
			c-0.686-3.272-3.873-6.588-5.893-9.155c-2.179-2.769-4.461-5.558-7.096-7.89c-2.4-2.125-5.407-5.168-7.79-1.345
			c-1.417,2.274-0.96,5.801-1.412,8.292c-0.604,3.341-2.458,10.289-4.96,12.667c0.774-0.142,1.549-0.283,2.322-0.424
			c0.924-7.109,1.755-14.125,2.883-21.208c0.564-3.546,1.711-7.483-2.655-8.369c-3.399-0.689-6.788,0-10.189-0.957
			c0.966,0.271-2.983-0.97-2.284-0.535c-1.151-0.718-1.45-2.136-2.311-3.084c-3.393-3.733-8.791-4.415-13.634-4.041
			c-0.62,0.048-2.378,0.926-1.91,1.786c5.149,9.451,12.385,17.746,17.854,27.064c1.432,2.438,2.797,4.91,4.182,7.374
			c1.65,2.934,2.426,5.645,3.601,8.776c1.901,5.068,3.608,10.017,5.14,15.234c1.578,5.372,3.197,10.638,3.828,16.213
			c0.477,4.193,1.691,9.058,3.737,12.831c2.313,4.27,6.238,7.938,9.503,11.496c2.441,2.659,5.242,6.897,8.435,8.697
			c0.791,0.446,2.489-0.614,2.47-1.506c-0.002-0.154-0.006-0.308-0.009-0.461c-0.021-1.074-2.698,0.143-2.678,1.166
			c0.003,0.154,0.007,0.308,0.009,0.461c0.824-0.502,1.646-1.004,2.471-1.506c-1.748-0.986-2.763-2.671-4.037-4.151
			c-1.674-1.944-3.578-3.682-5.278-5.605c-3.179-3.594-7.097-7.053-9.001-11.543c-2.041-4.81-2.614-9.878-3.526-14.928
			c-0.896-4.961-2.486-9.747-3.906-14.582c-1.644-5.592-3.326-11.167-5.427-16.583c-1.75-4.51-4.501-8.772-6.949-12.943
			c-5.473-9.319-12.705-17.61-17.855-27.063c-0.637,0.595-1.273,1.19-1.91,1.786c2.099-0.162,5.607,0.079,7.678,0.599
			c3.268,0.82,3.896,2.677,5.725,5c0.23,0.292,0.354,0.857,0.689,1.086c2.682,1.827,7.55,1.65,10.632,1.761
			c3.378,0.122,5.745,0.833,5.377,4.584c-0.276,2.817-0.841,5.771-1.405,8.546c-1.064,5.238-1.236,10.483-1.924,15.772
			c-0.146,1.126,2.107-0.22,2.322-0.424c2.854-2.713,4.123-7.871,5.24-11.507c0.686-2.233-0.217-6.053,1.026-7.979
			c1.027-1.591-0.822-2.077,1.593-0.261c0.684,0.514,1.428,1.112,2.073,1.662c4.029,3.432,9.27,9.199,11.487,14.049
			c2.664,5.826-2.386,14.388-5.029,19.584c-0.475,0.932,0.539,1.068,1.218,0.725c5.208-2.626,8.563-8.862,14.229-10.883
			c-0.439-0.015-0.878-0.03-1.316-0.044c1.545,2.241,0.43,7.697,0.108,10.328c-0.534,4.363-1.964,8.543-3.349,12.7
			c-2.397,7.19-8.438,17.058-16.191,18.996c-3.811,0.953-7.381-1.669-10.929-2.913c-3.472-1.217-7.144-1.997-10.465-3.617
			c-5.847-2.855-14.423-7.927-11.651-15.905c-0.537,0.433-1.074,0.865-1.612,1.298c5.323-1.224,10.023,3.747,14.966-0.046
			c0.222-0.17,0.875-0.843,0.563-1.191c-2.282-2.541-5.878-3.632-8.767-5.375c-2.859-1.726-4.389-3.096-4.771-6.45
			c-0.285-2.488-0.207-5.053-0.311-7.556c-0.014-0.352-0.105-2.676-0.373-2.455c-0.254,0.209,1.184,0.344,1.475,0.36
			c1.691,0.093,3.369,0.66,5.058,0.842c2.458,0.266,4.454,0.042,6.612-1.164c0.398-0.222,1.176-0.881,0.891-1.421
			c-1.724-3.264-7.754-4.309-10.919-5.262c-4.44-1.337-6.175-3.159-4.052-7.295c1.208-2.352,3-4.159,4.1-6.498
			c0.1-0.211,0.004-0.448-0.172-0.572c-3.875-2.721-9.432,0.742-8.287-7.008c0.708-4.794,2.354-8.059,1.2-13.067
			c-0.873,0.455-1.746,0.909-2.62,1.364c0.1,0.339,0.199,0.678,0.299,1.017C566.611,140.565,569.238,139.228,568.921,138.148
			L568.921,138.148z"/>
	</g>
</g>
<g>
	<g>
		<g>
			<path fill="#FFFFFF" d="M609.938,350.744c-4.834-9.467-10.856-19.021-21.249-23.021c-8.815-3.393-19.208-1.754-28.108,0.5
				c-9.547,2.416-21.844,6.621-27.703,15.096c-4.502,6.51-2.261,13.652,4.238,17.588c6.059,3.668,12.947,3.602,19.146,0.336
				c7.863-4.141,8.972-13.211,2.699-19.496c-6.066-6.078-15.837-6.422-23.771-5c-11.673,2.09-21.925,9.162-32.194,14.68
				c-12.884,6.92-25.692,12.893-40.064,15.971c-7.037,1.508-14.209,2.535-21.387,3.057c-3.397,0.248-6.791,0.232-10.191,0.061
				c-4.303-0.217-10.424,0.035-14.376-2.01c-1.602-0.828-2.25,0.525-0.65,1.352c6.179,3.195,15.644,2.76,22.436,2.662
				c8.73-0.127,17.652-1.494,26.176-3.316c18.438-3.939,34.507-12.801,50.858-21.848c8.478-4.689,17.162-9.055,27.029-9.406
				c6.041-0.215,13.25,1.215,16.258,7.131c2.001,3.934,1.729,9.059-1.646,12.172c-6.258,5.773-19.267,7.016-23.456-1.982
				c-4.163-8.938,6.541-16.23,13.271-19.578c9.379-4.664,20.048-7.605,30.548-7.939c15.044-0.477,23.235,10.334,29.476,22.555
				C607.7,351.137,610.525,351.896,609.938,350.744L609.938,350.744z"/>
		</g>
	</g>
	<g>
		<g>
			<path fill="#FFFFFF" d="M442.413,370.564c0.493,1.324-6.346,3.314-7.419,3.604c-3.965,1.068-8.054,0.68-12.089,0.219
				c-3.034-0.348-7.231-2.207-5.407-5.906c1.21-2.453,4.918-2.266,7.202-2.176c5.147,0.203,13.133,2.756,17.271,6.092
				c0.458,0.369,1.571,1.02,2.18,0.549c0.072-0.055,0.144-0.111,0.216-0.166c0.879-0.68-1.633-2.23-2.435-1.613
				c-0.072,0.057-0.144,0.111-0.216,0.166c0.727,0.186,1.453,0.367,2.18,0.553c-3.169-2.555-7.423-3.828-11.152-5.346
				c-3.456-1.406-6.909-2.137-10.642-2.078c-2.771,0.045-5.714,0.057-7.308,2.721c-1.445,2.416-0.642,4.281,1.26,6.045
				c4.45,4.127,13.286,4.232,18.901,3.215c1.979-0.357,11.254-2.387,10.121-5.436C444.747,370.119,441.94,369.295,442.413,370.564
				L442.413,370.564z"/>
		</g>
	</g>
	<g>
		<g>
			<path fill="#FFFFFF" d="M459.354,369.557c4.615,4.654,3.871,10.359,1.157,15.617c-0.899,1.744-1.917,3.506-3.163,5.027
				c-1.513,1.85-9.774,8.965-10.468,0.65c-0.289-3.457,3.762-7.816,5.723-10.277c2.881-3.615,6.352-6.25,9.455-9.594
				c0.806-0.867-1.778-2.318-2.435-1.611c-4.34,4.674-25.425,22.596-9.769,26.824c6.245,1.686,10.927-5.006,13.361-9.719
				c3.163-6.127,3.084-12.367-1.936-17.43C460.494,368.252,457.978,368.168,459.354,369.557L459.354,369.557z"/>
		</g>
	</g>
	<g>
		<g>
			<path fill="#FFFFFF" d="M460.466,370.365c-2.792,3.744-4.293,8.26-7.078,12.047c-1.358,1.848-3,3.412-4.317,5.283
				c-0.651,0.926-1.936,4.34-3.457,4.354c-1.663,0.018,0.503,1.885,1.452,1.875c1.087-0.01,1.219-0.205,2.075-0.844
				c1.894-1.42,3.755-5.383,5.179-7.143c3.588-4.436,5.488-9.764,8.851-14.273C463.73,370.914,461.132,369.475,460.466,370.365
				L460.466,370.365z"/>
		</g>
	</g>
	<g>
		<g>
			<path fill="#FFFFFF" d="M457.818,367.863c-6.978-1.443-13.253-5.111-18.623-9.727c-2.543-2.188-5.288-4.789-6.836-7.828
				c-0.731-1.434-1.434-2.869-0.538-4.414c0.078-1.479,0.848-1.871,2.31-1.178c1.242-0.17,2.335,0.154,3.278,0.967
				c5.142,2.482,9.203,7.027,13.035,11.117c3.808,4.066,8.136,9.117,10.126,14.336c0.265,0.693,1.862,1.582,2.549,1.025
				c0.054-0.043,0.108-0.086,0.162-0.131c0.872-0.707-1.652-2.246-2.435-1.611c-0.054,0.043-0.108,0.086-0.162,0.131
				c0.849,0.342,1.699,0.684,2.548,1.025c-2.838-7.439-9.456-14.41-15.149-19.84c-3.308-3.154-11.789-11.254-17.17-9.289
				c-7.06,2.578,2.599,12.74,5.013,14.998c6.343,5.934,14.162,10.477,22.696,12.24C460.528,370.08,458.88,368.082,457.818,367.863
				L457.818,367.863z"/>
		</g>
	</g>
	<g>
		<g>
			<path fill="#FFFFFF" d="M459.496,369.637c-9.017-7.625-17.717-15.646-26.683-23.35c-0.827-0.711-3.404-0.758-1.926,0.512
				c8.966,7.703,17.666,15.725,26.683,23.35C458.4,370.85,460.983,370.895,459.496,369.637L459.496,369.637z"/>
		</g>
	</g>
	<g>
		<g>
			<path fill="#FFFFFF" d="M482.726,363.689c2.95,1.906,3.899,9.404,4.265,12.557c0.348,2.998,0.098,5.984-1.07,8.791
				c-1.097,2.633-3.67,7.658-6.759,8.141c-2.534,0.395-4.139-1.996-3.529-4.496c0.288-1.18,0.704-2.35,1.113-3.49
				c0.801-2.238,1.479-4.582,2.396-6.768c2.116-5.049,5.548-9.393,7.916-14.283c0.453-0.936-2.246-2.244-2.703-1.299
				c-2.188,4.518-21.246,33.607-5.563,32.781c6.865-0.359,11.021-9.648,11.146-15.543c0.106-5.033-1.33-14.416-5.867-17.35
				C482.889,361.967,481.023,362.588,482.726,363.689L482.726,363.689z"/>
		</g>
	</g>
	<g>
		<g>
			<path fill="#FFFFFF" d="M477.653,393.883c2.824-5.059,5.038-10.529,6.716-16.063c1.186-3.91,3.096-7.807,3.563-11.887
				c0.11-0.961-2.646-2.068-2.779-0.895c-0.504,4.391-2.656,8.787-3.932,13.004c-1.51,4.99-3.733,9.99-6.271,14.539
				C474.456,393.465,477.13,394.82,477.653,393.883L477.653,393.883z"/>
		</g>
	</g>
	<g>
		<g>
			<path fill="#FFFFFF" d="M481.449,361.221c-3.997,0.184-9.46-4.229-12.261-6.666c-2.488-2.162-4.424-4.629-6.077-7.471
				c-0.646-1.059-1.223-2.154-1.73-3.285c1.786-3.844,4.091-4.52,6.916-2.023c4.577,2.818,8.046,7.145,10.788,11.678
				c1.698,2.807,1.332,6.656,3.304,9.076c0.592,0.727,3.418,1.248,2.371-0.037c-0.92-1.129-0.743-3.475-1.162-4.848
				c-0.541-1.77-1.572-3.33-2.563-4.873c-2.296-3.57-4.614-6.48-7.866-9.201c-2.728-2.281-10.498-8.27-14.258-4.502
				c-3.845,3.854,5.632,13.629,8.351,16c3.73,3.254,10.353,8.27,15.64,8.027C484.574,363.02,482.405,361.178,481.449,361.221
				L481.449,361.221z"/>
		</g>
	</g>
	<g>
		<g>
			<path fill="#FFFFFF" d="M480.973,360.469c-3.812-3.781-6.597-8.174-10.02-12.254c-2.823-3.365-6.306-6.053-9.638-8.887
				c-0.829-0.703-3.411-0.75-1.926,0.512c4.056,3.449,8.046,6.713,11.225,11.037c2.625,3.57,5.281,6.975,8.434,10.102
				C479.837,361.764,482.36,361.844,480.973,360.469L480.973,360.469z"/>
		</g>
	</g>
	<g>
		<g>
			<path fill="#FFFFFF" d="M506.693,350.152c2.602,4.98,5.076,9.033,6.264,14.68c1.055,5.018,1.723,14.068-3.656,17.051
				c-1.254,1.715-2.527,1.525-3.82-0.57c-2.037-0.719-3.019-2.137-2.945-4.26c-0.16-1.166-0.127-2.346-0.021-3.514
				c0.312-3.404,1.6-6.418,2.87-9.539c1.709-4.193,3.469-9.031,3.541-13.602c0.016-0.994-2.762-2.031-2.779-0.893
				c-0.131,8.191-5.672,15.109-6.412,23.141c-0.477,5.168,1.653,11.668,7.579,12.326c6.678,0.742,9.14-7.826,9.149-13.057
				c0.012-8.061-3.523-14.467-7.106-21.324C508.924,349.764,506.098,349.012,506.693,350.152L506.693,350.152z"/>
		</g>
	</g>
	<g>
		<g>
			<path fill="#FFFFFF" d="M507.35,383.889c0.314-3.383,1.98-6.729,2.645-10.086c0.517-2.611,0.807-5.256,0.98-7.91
				c0.354-5.422,0.822-11.432-0.09-16.785c-0.17-1.006-2.951-1.904-2.779-0.893c0.911,5.35,0.443,11.371,0.089,16.783
				c-0.243,3.721-0.792,7.363-1.709,10.98c-0.597,2.354-1.69,4.598-1.916,7.018C504.479,383.965,507.24,385.059,507.35,383.889
				L507.35,383.889z"/>
		</g>
	</g>
	<g>
		<g>
			<path fill="#FFFFFF" d="M505.771,349.145c-6.247-1.477-11.804-5.225-16.915-8.971c-2.738-2.006-7.061-4.156-8.204-7.59
				c-1.782-5.35,3.521-8.422,8.556-5.781c5.143,2.699,10.09,7.896,13.016,12.768c2.225,3.703,3.676,8.043,6.046,11.572
				c0.353,0.527,1.798,1.33,2.403,0.787c0.07-0.063,0.142-0.125,0.213-0.189c0.854-0.766-1.693-2.275-2.434-1.613
				c-0.072,0.064-0.143,0.129-0.215,0.191c0.802,0.264,1.603,0.525,2.404,0.787c-2.324-3.463-3.703-7.768-5.876-11.371
				c-2.521-4.178-5.64-7.098-9.337-10.199c-3.543-2.973-10.146-8.422-15.103-5.289c-6.218,3.93-1.009,10.82,2.882,13.799
				c7.005,5.361,14.654,10.863,23.367,12.922C508.463,351.414,506.814,349.391,505.771,349.145L505.771,349.145z"/>
		</g>
	</g>
	<g>
		<g>
			<path fill="#FFFFFF" d="M507.603,350.248c-4.104-5.373-10.166-10.771-15.612-14.744c-2.949-2.15-6.783-5.854-10.389-6.701
				c-1.889-0.441-0.241,1.58,0.805,1.824c0.887,0.209,2.898,2.012,3.735,2.59c1.94,1.336,4.124,2.957,5.931,4.432
				c4.511,3.688,9.629,8.016,13.159,12.637C505.805,351.035,508.616,351.574,507.603,350.248L507.603,350.248z"/>
		</g>
	</g>
</g>
</svg>
