<?xml version="1.0" encoding="utf-8"?>
<!-- Generator: Adobe Illustrator 16.0.0, SVG Export Plug-In . SVG Version: 6.00 Build 0)  -->
<!DOCTYPE svg PUBLIC "-//W3C//DTD SVG 1.1//EN" "http://www.w3.org/Graphics/SVG/1.1/DTD/svg11.dtd">
<svg version="1.1" id="Layer_1" xmlns="http://www.w3.org/2000/svg" xmlns:xlink="http://www.w3.org/1999/xlink" x="0px" y="0px"
	 width="595.28px" height="841.89px" viewBox="0 0 595.28 841.89" enable-background="new 0 0 595.28 841.89" xml:space="preserve">
<g>
	<g>
		<g>
			<path fill="#FFFFFF" d="M442.271,196.948c1.363,9.34,11.634,17.075,18.09,23.176c8.014,7.572,18.15,13.01,29.478,11.923
				c15.05-1.443,28.665-15.868,26.666-31.386c-1.949-15.118-15.74-27.322-28.052-34.738c-21.887-13.184-48.942-14.583-72.436-23.777
				c-14.454-5.657-28.55-13.456-40.679-23.182c-6.358-5.1-11.883-10.958-15.625-18.246c-2.686-5.232-7.547-13.688-4.23-19.505
				c0.988-1.731-0.416-2.653-1.426-0.884c-3.776,6.624-0.754,14.014,2.295,20.339c5.134,10.643,13.094,18.488,22.678,25.244
				c10.657,7.51,22.179,13.902,34.295,18.725c12.137,4.831,24.869,7.613,37.459,10.964c18.605,4.951,36.443,10.608,50.434,24.381
				c12.223,12.033,19.698,30.646,3.846,43.44c-10.398,8.393-25.01,6.846-35.65-0.188c-5.313-3.513-9.606-8.305-14.134-12.729
				c-4.397-4.296-9.827-9.17-10.763-15.577C444.304,193.477,442.116,195.892,442.271,196.948L442.271,196.948z"/>
		</g>
	</g>
	<g>
		<g>
			<path fill="#FFFFFF" d="M450.721,205.143c-6.594,1.744-11.02-7.984-11.539-12.717c-0.547-4.984,0.482-9.868,1.084-14.798
				c-0.671,0.707-1.343,1.415-2.014,2.123c3.363,3.541,7.563,7.825,10.279,11.808c1.332,1.951,5.901,12.382,1.658,13.018
				c-1.04,0.155-2.347,3.14-0.807,2.91c4.63-0.693,4.858-7.553,4.326-10.942c-1.221-7.776-8.576-14.264-13.689-19.647
				c-0.764-0.804-1.955,1.65-2.012,2.124c-0.813,6.636-2.558,14.191-0.097,20.729c1.593,4.231,7.222,9.567,12.003,8.302
				C450.935,207.783,452.182,204.756,450.721,205.143L450.721,205.143z"/>
		</g>
	</g>
	<g>
		<g>
			<path fill="#FFFFFF" d="M441.375,194.186c0.334,4.15,2.443,8.153,4.213,11.854c0.545,1.138,1.979-1.201,2.104-1.597
				c0.819-2.572-0.354-5.329-1.453-7.665c-1.367-2.903-2.398-6.332-5-8.367c-0.789-0.617-1.795,1.288-1.947,1.765
				c-0.896,2.821,0.938,6.573,2.094,9.094c0.975,2.126,3.034,7.404,5.341,8.506c0.913,0.436,1.736-1.13,1.945-1.765
				c0.862-2.611-0.829-5.064-1.769-7.467c-1.527-3.906-4.689-10.125-3.557-14.455c-0.574,0.611-1.148,1.222-1.724,1.832
				c3.293-0.249,5.06,9.738,5.05,11.934c0.597-0.729,1.194-1.459,1.791-2.189c-3.381-0.886-6.824-9.111-6.539-12.068
				c-0.416,0.672-0.832,1.345-1.249,2.017c0.366-0.142,0.733-0.284,1.103-0.426c0.893-0.203,1.641-1.612,1.525-2.464
				c-0.131-0.975-0.16-0.969-0.902-1.622c-0.301-0.265-0.846,0.144-1.055,0.325c-1.614,1.402-1.665,2.688-1.461,4.744
				c0.41,4.125,0.955,7.998,2.178,11.954c0.456,1.477,2.558-1,2.246-2.018c-1.058-3.455-0.877-7.94-3.039-10.995
				c-0.723-1.021-1.926,1.083-2.104,1.597c-1.729,5.004,1.887,11.131,1.934,16.235c0.018,1.896,2.262-0.313,2.258-1.393
				c-0.013-4.191-2.061-9.224-1.021-13.344c-0.576,0.611-1.151,1.221-1.726,1.832c3.354-0.314,6.169,12.135,6.669,13.868
				c0.722-0.755,1.443-1.511,2.164-2.267c-0.053-0.07-0.105-0.141-0.159-0.212c-0.777-1.034-2.747,1.632-2.083,2.517
				c0.053,0.07,0.105,0.141,0.158,0.212c0.805,1.071,2.393-1.48,2.166-2.267c-0.736-2.551-3.381-15.229-7.59-14.836
				c-0.855,0.08-1.532,1.067-1.725,1.832c-1.134,4.499,0.875,9.527,0.889,14.06c0.752-0.464,1.505-0.929,2.258-1.393
				c-0.022-2.402-0.565-4.599-1.057-6.945c-0.484-2.311-1.805-6.276-1.01-8.574c-0.702,0.532-1.403,1.064-2.104,1.596
				c2.056,2.905,1.865,7.192,2.876,10.496c0.749-0.672,1.498-1.345,2.246-2.018c-0.676-2.184-1.264-4.282-1.588-6.556
				c-0.171-1.196-0.219-2.389-0.352-3.589c-0.055-0.481-0.111-0.961-0.168-1.443c0-1.113-0.382-1.039-1.145,0.222
				c0.509-0.821,1.018-1.642,1.526-2.463c-7.187,1.634,0.29,15.255,4.556,16.373c0.865,0.227,1.789-1.542,1.791-2.189
				c0.013-2.848-1.71-13.849-5.982-13.527c-0.857,0.064-1.528,1.081-1.725,1.831c-0.783,2.987,0.242,6.451,1.104,9.322
				c0.547,1.825,1.21,3.613,1.885,5.393c0.688,1.817,2.988,5.231,2.336,7.207c0.649-0.588,1.298-1.177,1.946-1.764
				c-1.683-0.805-3.218-4.695-4.021-6.193c-1.18-2.203-3.901-6.572-3.056-9.233c-0.65,0.589-1.297,1.178-1.946,1.766
				c2.031,1.588,2.753,3.983,3.797,6.234c0.966,2.082,3.081,5.174,2.302,7.621c0.7-0.532,1.402-1.064,2.103-1.596
				c-1.696-3.55-3.73-7.393-4.05-11.355C443.507,190.748,441.291,193.13,441.375,194.186L441.375,194.186z"/>
		</g>
	</g>
	<g>
		<g>
			<path fill="#FFFFFF" d="M449.494,198.255c-1.65-0.846-2.439-7.086-2.688-8.856c-0.723,0.755-1.444,1.511-2.166,2.267
				c1.966,2.465,3.693,7.084,4.363,10.187c0.317-0.703,0.635-1.407,0.953-2.11c-1.594,1.352-1.578,2.733-1.496,4.718
				c0.063,1.548,2.163-1.05,2.252-1.706c0.373-2.728,0.384-6.208-0.736-8.758c-0.545-1.24-2.118,1.494-2.172,1.954
				c-0.261,2.224-0.135,6.276,1.667,7.921c0.155,0.082,0.315,0.091,0.481,0.029c4.861-1.623,1.808-9.791,0.445-12.87
				c-0.549-1.242-2.237,1.603-2.164,2.268c0.34,3.152,1.169,6.079,2.393,8.995c0.42,1.005,1.83-0.859,1.965-1.211
				c1.017-2.692-0.211-5.468-1.252-8.025c-1.584-3.9-3.365-6.885-6.631-9.471c-0.674-0.533-1.62,1.016-1.808,1.379
				c-1.022,1.992-0.076,3.476-0.379,5.558c0.724-0.651,1.448-1.303,2.171-1.955c-0.995-2.037-1.057-4.889-1.645-7.065
				c-0.355-1.314-1.83,0.393-2.046,0.962c-0.743,1.959-0.419,3.773-0.015,5.81c0.309,1.559,0.814,2.986,1.291,4.502
				c0.262,0.832,1.683,4.16,1.498,4.929c-0.51,2.127,1.834,0.531,2.124-0.677c0.479-1.999-0.559-3.786-1.171-5.715
				c-0.672-2.117-2.775-6.4-1.882-8.755c-0.683,0.32-1.364,0.641-2.046,0.961c0.654,2.423,0.705,5.308,1.808,7.564
				c0.606,1.24,2.104-1.499,2.171-1.954c0.172-1.178-0.559-3.049-0.034-4.073c-0.603,0.46-1.204,0.92-1.807,1.38
				c2.382,1.886,3.86,3.83,5.19,6.603c0.788,1.645,3.344,6.02,2.615,7.948c0.654-0.404,1.309-0.808,1.964-1.211
				c-1.159-2.768-1.907-5.517-2.23-8.497c-0.722,0.756-1.442,1.511-2.165,2.267c0.957,2.163,1.053,4.441,1.818,6.618
				c0.636,1.805,0.398-0.138,0.35-1.236c-0.069-1.546-0.615-2.7-0.419-4.369c-0.724,0.65-1.447,1.302-2.171,1.954
				c0.807,1.835,0.822,5.728,0.563,7.634c0.75-0.568,1.501-1.137,2.252-1.705c0.181-0.722,0.045-0.888-0.41-0.498
				c0.518-0.44,1.107-1.396,0.953-2.109c-0.708-3.281-2.451-8.084-4.525-10.686c-0.889-1.114-2.27,1.525-2.165,2.266
				c0.288,2.055,0.974,8.57,3.167,9.692C448.795,201.655,450.5,198.769,449.494,198.255L449.494,198.255z"/>
		</g>
	</g>
	<g>
		<g>
			<path fill="#FFFFFF" d="M477.177,227.88c-0.181-0.02-0.36-0.04-0.541-0.06c-0.537-0.061-1.153,0.645-1.376,1.052
				c-3.379,6.164-8.293,7.745-15.051,7.426c-4.217-0.2-10.779-1.086-13.766-4.486c-0.387,0.86-0.774,1.72-1.162,2.58
				c1.641-0.95,4.67-0.706,6.528-1.189c2.444-0.635,4.698-1.777,7.147-2.415c4.934-1.283,11.039-1.277,15.825,0.812
				c1.12,0.489,2.767-2.417,1.768-2.853c-4.407-1.923-10.304-2.375-14.978-1.316c-2.545,0.577-4.893,1.571-7.354,2.403
				c-2.852,0.964-6.12,0.427-8.697,1.917c-0.555,0.321-1.769,1.888-1.162,2.579c4.182,4.762,13.489,5.359,19.242,4.853
				c6.412-0.564,10.099-3.979,13.085-9.425c-0.459,0.35-0.917,0.7-1.376,1.051c0.18,0.02,0.361,0.041,0.541,0.062
				C476.959,230.991,478.436,228.022,477.177,227.88L477.177,227.88z"/>
		</g>
	</g>
	<g>
		<g>
			<path fill="#FFFFFF" d="M458.275,232.732c2.233,1.899,7.843,1.811,10.652,1.936c0.9,0.04,1.799-1.4,1.792-2.189
				c-0.038-4.676-12.968,0.611-14.557,2.036c-0.392,0.352-1.593,2.078-0.714,2.528c3.051,1.563,6.836,1.144,10.146,1.207
				c1.029,0.02,2.664-2.714,1.326-2.986c-3-0.61-6.271-0.608-9.332-0.573c-1.898,0.022-5.789,1.009-7.053-0.793
				c-0.568,0.917-1.137,1.834-1.705,2.75c2.521-0.11,4.727-0.414,7.219-0.85c1.996-0.349,4.452-0.223,6.375-0.91
				c0.788-0.282,1.773-1.577,1.525-2.463c-0.794-2.851-8.916-0.583-11.012-0.166c-1.01,0.202-2.359,3.148-0.806,2.91
				c5.078-0.78,10.544-0.883,15.521-2.399c0.944-0.288,1.8-1.766,1.443-2.713c-0.908-2.42-11.85,0.686-13.563,1.6
				c-0.547,0.292-1.953,2.249-1.006,2.748c1.915,1.007,4.529,0.538,6.606,0.471c3.157-0.102,6.269-0.89,9.407-0.897
				c0.441-0.996,0.883-1.991,1.325-2.986c-2.913,0.344-6.052,1.592-8.509,3.199c-0.5,0.327-2.129,2.606-0.783,2.814
				c3.04,0.47,7.14-1.646,8.996-3.968c0.233-0.292,1.32-2.337,0.209-2.298c-2.197,0.076-4.15,0.838-5.603,2.496
				c-0.413,0.473-0.919,1.432-0.589,2.064c1.642,3.148,10.036-2.876,7.482-5.946c-1.333-1.602-5.17-0.174-6.699,0.284
				c-2.426,0.729-4.818,1.794-7.372,2.008c-1.067,0.089-2.159-0.114-3.22,0.079c-1.066,0.194-1.818,0.755-2.969,0.572
				c-0.354,0.983-0.71,1.966-1.064,2.948c0.944-0.427,1.941-0.642,2.991-0.647c1.081-0.044,2.565-2.97,1.325-2.986
				c-1.956-0.026-3.615-0.708-5.498-0.969c-0.918-0.128-2.296,1.988-1.705,2.751c0.787,1.016,1.728,1.317,2.979,1.073
				c1.034-0.203,2.318-3.205,0.806-2.91c-0.567-0.227-1.134-0.454-1.7-0.68c-0.568,0.917-1.137,1.834-1.705,2.751
				c1.994,0.277,3.404,0.942,5.499,0.97c0.441-0.996,0.884-1.991,1.325-2.986c-1.285,0.053-2.287,0.279-3.512,0.724
				c-0.676,0.246-2.475,2.724-1.064,2.948c1.896,0.302,4.203-0.51,6.188-0.651c2.543-0.181,4.912-1.163,7.32-1.907
				c1.422-0.438,3.013-1.049,4.51-1.021c3.766,0.071-1.358,1.988-1.832,1.079c-0.197,0.688-0.393,1.375-0.59,2.064
				c0.73-0.835,2.357-1.086,3.373-1.122c0.07-0.766,0.141-1.532,0.209-2.299c-1.248,1.562-4.788,2.898-6.764,2.593
				c-0.262,0.938-0.521,1.876-0.783,2.814c1.996-1.306,5.043-2.574,7.424-2.855c1-0.119,2.611-2.99,1.325-2.986
				c-2.716,0.007-5.354,0.708-8.065,0.853c-2.17,0.115-5.523,0.75-7.506-0.292c-0.334,0.916-0.668,1.832-1.004,2.748
				c1.316-0.702,11.205-3.1,11.721-1.726c0.482-0.904,0.964-1.809,1.445-2.713c-4.926,1.501-10.486,1.625-15.52,2.398
				c-0.27,0.97-0.538,1.939-0.806,2.91c0.991-0.198,9.231-1.944,9.571-0.728c0.509-0.821,1.018-1.643,1.526-2.464
				c-1.56,0.558-3.492,0.437-5.136,0.7c-2.674,0.429-5.229,0.864-7.938,0.984c-0.912,0.04-2.32,1.872-1.704,2.751
				c1.341,1.913,4.038,1.433,6.083,1.326c3.581-0.187,7.541-0.206,11.059,0.51c0.442-0.996,0.884-1.991,1.326-2.986
				c-3.129-0.06-6.795,0.417-9.705-1.073c-0.237,0.842-0.476,1.685-0.714,2.527c0.354-0.318,11.946-4.231,11.958-2.846
				c0.598-0.729,1.195-1.458,1.792-2.189c-2.657-0.119-8.093-0.003-10.21-1.803C459.222,229.182,457.336,231.934,458.275,232.732
				L458.275,232.732z"/>
		</g>
	</g>
	<g>
		<g>
			<path fill="#FFFFFF" d="M500.334,224.757c-11.494-1.049-18.229-10.973-22.45-20.686c-0.694,0.839-1.39,1.677-2.083,2.516
				c3.488,3.885,7.432,5.172,12.165,7.147c3.233,1.351,16.688,7.327,12.334,12.293c-1.05,1.196-0.585,3.311,0.905,1.61
				c3.773-4.304,2.447-7.707-1.723-11.245c-6.465-5.487-15.904-5.98-21.599-12.322c-0.948-1.057-2.48,1.603-2.083,2.516
				c4.346,10.003,11.411,20.081,23.209,21.156C500.125,227.845,501.584,224.871,500.334,224.757L500.334,224.757z"/>
		</g>
	</g>
	<g>
		<g>
			<path fill="#FFFFFF" d="M488.712,219.787c1.638,2.703,5.928,6.912,9.114,7.677c1.002,0.241,2.127-1.984,1.705-2.751
				c-3.101-5.627-10.001-7.965-14.438-12.378c-0.734-0.73-2.621,1.961-1.767,2.854c1.675,1.749,3.851,2.837,5.766,4.31
				c1.265,0.972,2.341,2.11,3.907,2.502c1.027,0.259,2.329-2.208,1.547-2.919c-3.464-3.148-7.357-5.589-10.584-9.081
				c-0.643,0.896-1.283,1.791-1.926,2.685c3.277,3.214,7.24,5.432,11.213,7.675c2.275,1.284,5.252,3.049,7.965,3.031
				c0.836-0.006,2.425-1.977,1.703-2.751c-1.352-1.455-3.101-2.47-4.811-3.493c-1.046-0.625-2.568,2.047-1.768,2.854
				c0.775,0.78,5.381,4.806,5.492,6.191c0.596-0.834,1.19-1.668,1.785-2.502c-2.107,0.025-4.744-2.469-6.657-3.245
				c-1.001-0.406-2.569,1.86-1.926,2.685c0.992,1.272,1.948,2.537,2.939,3.806c0.642-0.894,1.284-1.789,1.926-2.684
				c-4.655-2.798-7.514-7.912-12.112-10.717c-1.017-0.62-2.621,2.072-1.767,2.854c0.069,0.063,0.14,0.127,0.21,0.191
				c0.777,0.71,2.684-2.014,1.767-2.854c-0.069-0.063-0.14-0.127-0.21-0.192c-0.588,0.952-1.178,1.903-1.767,2.854
				c4.576,2.79,7.456,7.917,12.111,10.715c0.957,0.576,2.52-1.924,1.925-2.685c-0.986-1.263-1.951-2.542-2.939-3.807
				c-0.641,0.895-1.283,1.79-1.924,2.685c2.259,0.917,4.607,3.408,7.099,3.378c1.06-0.013,1.86-1.577,1.786-2.502
				c-0.199-2.489-4.365-5.411-5.971-7.027c-0.59,0.951-1.179,1.902-1.768,2.854c1.372,0.82,3.436,2.016,4.495,3.154
				c0.568-0.916,1.137-1.833,1.705-2.75c-3.024,0.021-6.28-2.182-8.811-3.641c-3.544-2.044-6.985-4.05-9.925-6.932
				c-0.725-0.712-2.604,1.951-1.926,2.685c3.324,3.597,7.33,6.172,10.9,9.418c0.515-0.974,1.03-1.947,1.545-2.921
				c-1.632-0.409-3.197-2.222-4.495-3.16c-1.628-1.177-3.333-2.055-4.735-3.52c-0.589,0.951-1.178,1.902-1.767,2.854
				c4.296,4.274,11.132,6.617,14.12,12.041c0.568-0.917,1.137-1.834,1.705-2.751c-2.617-0.627-7.11-5.15-8.356-7.206
				C490.154,216.212,488.125,218.818,488.712,219.787L488.712,219.787z"/>
		</g>
	</g>
	<g>
		<g>
			<path fill="#FFFFFF" d="M513.563,214.781c-4.067,1.615-2.21,7.714-1.2,10.769c1.559,4.712,4.613,8.795,7.66,12.646
				c1.176,1.486,2.398,3.109,3.809,4.383c1.869,1.688,4.094,2.127,6.098,3.52c0.936,0.651,2.453-1.919,1.926-2.685
				c-2.539-3.688-4.273-7.076-5.13-11.503c-0.553-2.86-1.081-5.76-2.067-8.545c-1.013-2.861-4.893-12.282-9.381-10.728
				c-0.992,0.344-2.193,3.39-0.807,2.91c4.898-1.696,9.12,13.461,9.619,15.881c1.138,5.505,2.404,9.741,5.682,14.502
				c0.643-0.895,1.283-1.79,1.926-2.686c-2.508-1.742-4.946-2.307-7.18-4.684c-2.164-2.303-4.098-4.97-5.896-7.567
				c-1.682-2.43-3.093-4.929-4.024-7.739c-0.174-0.521-1.334-5.765-1.84-5.564C513.729,217.306,514.9,214.251,513.563,214.781
				L513.563,214.781z"/>
		</g>
	</g>
	<g>
		<g>
			<path fill="#FFFFFF" d="M513.666,217.845c0.71,4.734,4.63,8.408,6.767,12.531c0.578,1.114,2.488-1.536,2.084-2.516
				c-1.614-3.909-3.707-8.398-6.896-11.287c-0.394-0.356-1.129,0.382-1.337,0.622c-1.722,1.986-0.782,4.066,0.359,6.146
				c1.83,3.335,3.913,8.218,7.073,10.402c0.568,0.393,1.375-0.627,1.597-0.985c1.149-1.847,0.665-2.944-0.085-4.898
				c-1.619-4.225-3.836-7.201-6.432-10.813c-0.643,0.895-1.283,1.79-1.926,2.685c2.184,1.229,2.641,2.944,3.742,4.974
				c0.853,1.571,2.318,3.169,2.776,4.912c0.595-0.835,1.19-1.668,1.785-2.501c-2.233-0.468-4.77-5.804-5.349-7.617
				c-0.475-1.486-2.527,1.008-2.246,2.018c1.571,5.628,5.383,9.478,7.658,14.665c0.693-0.839,1.389-1.678,2.082-2.517
				c-1.438-2.23-2.845-4.473-4.309-6.687c-0.723-1.092-1.25-2.585-2.453-3.183c-1.033-0.514-2.169,1.637-2.006,2.436
				c1.031,5.07,4.861,9.979,7.922,14.071c0.695-0.839,1.39-1.678,2.084-2.516c-3.09-3.641-4.293-8.717-8.326-11.605
				c-0.984-0.706-2.322,1.916-1.926,2.685c1.686,3.272,4.152,7.02,6.613,9.755c0.694-0.839,1.39-1.677,2.084-2.516
				c-3.225-3.569-7.195-8.233-8.9-12.828c-0.248-0.672-1.248-3.629-0.426-4.021c0.17-0.083,1.033,0.936,1.239,1.051
				c1.778,0.996,3.649,3.911,4.715,5.735c0.642-0.895,1.283-1.791,1.926-2.685c-2.323-0.844-5.511-5.096-5.688-7.615
				c-0.668,0.812-1.337,1.624-2.006,2.435c0.14,0.112,0.28,0.224,0.42,0.336c0.85,0.677,2.537-1.952,1.926-2.686
				c-0.208-0.249-0.416-0.497-0.623-0.747c-0.109,0.567-0.22,1.134-0.329,1.7c0.063-0.088,0.128-0.177,0.192-0.266
				c1.178-1.647-0.266-2.508-1.428-0.883c-0.063,0.088-0.127,0.177-0.191,0.266c-0.232,0.326-0.666,1.296-0.328,1.701
				c0.207,0.249,0.416,0.498,0.623,0.747c0.642-0.895,1.284-1.79,1.926-2.685c-0.141-0.112-0.28-0.224-0.42-0.336
				c-0.968-0.771-2.051,1.823-2.008,2.436c0.197,2.796,3.424,7.454,6.166,8.451c1.072,0.39,2.452-1.784,1.927-2.684
				c-1.593-2.73-7.077-11.009-10.146-5.93c-3.968,6.572,5.468,16.727,9.351,21.024c0.895,0.989,2.801-1.72,2.084-2.516
				c-2.461-2.735-4.928-6.483-6.613-9.755c-0.643,0.895-1.283,1.79-1.926,2.684c3.895,2.791,5.029,7.758,8.01,11.269
				c0.855,1.007,2.734-1.646,2.084-2.516c-2.893-3.869-6.787-8.79-7.76-13.573c-0.67,0.812-1.338,1.624-2.008,2.436
				c2.438,1.211,5.02,7.32,6.447,9.533c0.725,1.124,2.492-1.584,2.082-2.517c-2.203-5.022-5.961-8.676-7.494-14.166
				c-0.748,0.673-1.498,1.345-2.246,2.018c0.813,2.547,3.248,7.954,6.27,8.585c0.927,0.193,1.987-1.736,1.785-2.502
				c-0.533-2.028-1.945-3.576-2.938-5.411c-1.167-2.156-1.867-4.077-4.059-5.311c-0.984-0.554-2.489,1.9-1.926,2.686
				c1.469,2.043,3.171,3.703,4.369,5.96c0.4,0.756,3.163,5.775,2.806,6.351c0.532-0.329,1.063-0.657,1.597-0.985
				c-2.393-1.653-4.035-5.557-5.46-7.93c-0.294-0.49-2.579-4.449-2.835-4.153c-0.444,0.207-0.89,0.414-1.336,0.622
				c3.029,2.742,5.051,7.248,6.579,10.949c0.694-0.839,1.39-1.678,2.084-2.516c-2.03-3.917-5.927-7.512-6.604-12.032
				C515.694,214.373,513.508,216.79,513.666,217.845L513.666,217.845z"/>
		</g>
	</g>
	<g>
		<g>
			<path fill="#FFFFFF" d="M500.223,175.337c-5.498,0.251-9.357,4.456-10.709,9.58c-0.791,2.998-0.677,6.162,0.154,9.138
				c0.586,2.1,1.516,3.948,1.737,6.151c0.165,1.64-0.044,3.242,0.126,4.859c0.13,1.244,1.599-0.188,1.836-0.567
				c1.251-1.991,1.609-4.246,2.82-6.309c1.39-2.37,2.577-4.831,3.443-7.438c1.791-5.395,2.299-10.194-0.292-15.421
				c-0.693,0.839-1.389,1.678-2.083,2.516c0.055,0.07,0.11,0.139,0.166,0.208c0.815,1.022,2.767-1.66,2.084-2.516
				c-0.057-0.07-0.111-0.139-0.167-0.208c-0.854-1.072-2.538,1.597-2.083,2.516c2.646,5.338,1.666,10.765-0.719,16.043
				c-0.931,2.064-2.355,3.842-3.316,5.866c-0.572,1.206-0.581,2.747-1.279,3.859c0.611-0.189,1.224-0.378,1.836-0.566
				c-0.305-2.894-0.039-5.537-0.817-8.435c-0.819-3.054-2.026-5.325-1.661-8.612c0.474-4.285,3.264-7.479,7.599-7.677
				C500.037,178.272,501.382,175.284,500.223,175.337L500.223,175.337z"/>
		</g>
	</g>
	<g>
		<g>
			<path fill="#FFFFFF" d="M499.589,178.063c-4.991,0.265-7.192,10.815-4.21,13.779c0.59,0.585,1.685-1.066,1.807-1.38
				c1.045-2.701,1.857-5.912,1.287-8.806c-0.326-1.65-0.998-3.572-2.977-2.425c-3.459,2.007-2.466,11.031-0.516,13.478
				c0.162,0.204,0.377,0.297,0.639,0.197c3.514-1.348,3.061-7.679,2.156-10.447c-1.838-5.62-5.217-0.983-5.756,2.521
				c-0.303,1.96,0.205,13.659,3.967,9.913c2.654-2.645,2.911-10.208,1.023-13.236c-0.152-0.244-0.385-0.252-0.639-0.196
				c-2.44,0.533-3.281,3.537-3.615,5.673c-0.416,2.671-0.827,7.212,0.809,9.452c0.529,0.723,1.502-0.381,1.755-0.817
				c0.976-1.679,2.119-12.81-1.782-11.36c-1.772,0.659-1.997,3.533-2.027,5.042c-0.061,2.973,0.031,5.933-0.055,8.899
				c-0.057,1.998,2.1-0.5,2.26-1.392c0.482-2.695,0.921-5.389,0.955-8.133c0.023-2.009-0.832-6.146,0.438-7.871
				c-0.497,0.151-0.995,0.302-1.494,0.453c0.798,1.188,1.989-2.75,1.358-0.405c-0.42,1.556-1.766,3.97-3.065,4.931
				c0.308,0.021,0.614,0.042,0.921,0.064c-0.477-0.624,2.854-5.031,3.354-4.784c1.173,0.576-1.847,9.274-2.083,10.889
				c0.671-0.708,1.342-1.415,2.014-2.123c-4.27-4.105-6.075,7.206-2.568,7.831c2.115,0.376,3.82-3.52,4.43-4.936
				c0.643-1.489,1.107-3.066,1.371-4.666c0.201-1.234-0.4-5.625,0.265-6.464c0.976-1.231,0.505-3.388-0.905-1.61
				c-2.09,2.634-1.188,4.777-1.431,7.94c-0.073,0.96-1.272,7.761-2.927,5.714c-0.295-0.363-0.237-1.677-0.246-2.1
				c0.014,0.642-0.838,0.104,0.244,1.144c0.809,0.778,1.94-1.631,2.012-2.123c0.514-3.5,2.604-7.017,2.451-10.581
				c-0.088-2.12-1.273-3.017-3.029-1.601c-1.737,1.4-6.705,7.803-5.035,9.985c0.235,0.307,0.619,0.287,0.922,0.063
				c1.689-1.251,8.214-8.626,5.029-10.778c-1.5-1.014-2.521,0.859-3.266,1.901c-0.955,1.338-3.199,3.843-1.879,5.558
				c0.172,0.224,0.365,0.271,0.639,0.197c2.301-0.628,5.078-4.227,3.508-6.563c-0.395-0.59-1.223,0.084-1.494,0.453
				c-1.607,2.182-1.823,4.846-1.85,7.513c-0.039,3.938-0.203,7.608-0.898,11.493c0.754-0.464,1.506-0.928,2.26-1.392
				c0.084-2.923,0.371-5.977,0.054-8.9c0.005-0.226,0.011-0.451,0.016-0.675c0.181-0.981-0.001-0.9-0.546,0.243
				c-0.004,0.734,0.603,1.62,0.734,2.382c0.211,1.207,0.53,3.828-0.079,4.879c0.584-0.273,1.169-0.545,1.755-0.817
				c-1.031-1.411-0.905-4.978-0.82-6.637c0.021-0.435,0.107-2.418,0.35-2.488c0.395-0.114,0.483,2.041,0.482,2.045
				c0.088,1.08,0.089,2.182-0.001,3.262c-0.069,0.915-0.215,1.818-0.438,2.71c0.297-0.482,0.303-0.945,0.016-1.388
				c0.004,0.042-2.273-9-0.338-8.451c1.415,0.402,1.021,5.026,1.135,5.967c0.203,1.668,0.314-0.327,0.151-1.229
				c-0.228-1.264-0.481-2.575-0.501-3.862c-0.012-0.839-0.26-3.339,0.385-1.049c0.656,2.337,0.132,5.197-0.729,7.42
				c0.602-0.46,1.205-0.92,1.807-1.38c-1.157-1.151-1.002-7.827,1.118-7.939C499.402,180.989,500.741,178.002,499.589,178.063
				L499.589,178.063z"/>
		</g>
	</g>
	<g>
		<g>
			<path fill="#FFFFFF" d="M506.408,180.467c-0.064,0.089-0.128,0.178-0.19,0.268c-0.231,0.328-0.668,1.295-0.327,1.701
				c1.76,2.102,4.596,3.04,6.969,4.311c2.633,1.41,5.247,2.911,8.184,3.593c6.672,1.548,12.322-1.089,18.617-2.753
				c0.651-0.172,2.35-2.418,1.287-2.881c-3.346-1.46-6.143-2.925-9.215-4.907c-2.44-1.575-5.206-2.978-8.127-3.39
				c-5.58-0.786-11.039,2.529-16.467,3.275c-0.975,0.133-2.628,2.991-1.325,2.985c0.12-0.001,0.24-0.001,0.36-0.002
				c1.137-0.004,2.518-2.99,1.326-2.985c-0.12,0-0.24,0.001-0.361,0.002c-0.441,0.995-0.883,1.99-1.325,2.985
				c4.964-0.682,9.972-3.518,15.047-3.434c3.266,0.054,6.425,1.696,9.104,3.416c3.076,1.976,5.869,3.448,9.215,4.907
				c0.43-0.96,0.859-1.921,1.287-2.88c-5.455,1.442-10.713,3.874-16.491,2.971c-2.844-0.444-5.413-1.636-7.931-2.98
				c-2.441-1.304-6.281-2.613-8.072-4.749c-0.109,0.566-0.219,1.133-0.328,1.7c0.063-0.09,0.126-0.179,0.189-0.269
				C508.999,179.695,507.559,178.831,506.408,180.467L506.408,180.467z"/>
		</g>
	</g>
	<g>
		<g>
			<path fill="#FFFFFF" d="M513.883,183.67c2.469,0.852,4.965,1.566,7.522,2.102c1.883,0.394,4.091,1.204,5.966,0.607
				c0.594-0.188,2.391-2.476,1.288-2.881c-4.31-1.583-9.907-4.115-14.555-3.666c-0.972,0.093-2.47,2.069-1.546,2.919
				c2.221,2.045,10.156,5.487,13.328,3.745c0.715-0.393,1.787-2.022,1.004-2.747c-1.733-1.611-5.248-1.905-7.523-2.219
				c-2.344-0.323-5.203-1.053-7.523-0.556c-0.803,0.172-2.338,2.929-1.066,2.947c1.828,0.027,3.695,0.072,5.517-0.141
				c1.275-0.148,2.38-0.594,3.669-0.35c0.355-0.982,0.711-1.965,1.066-2.947c-2.361,0.414-6.393,0.202-8.709-0.482
				c-0.07,0.767-0.139,1.533-0.209,2.298c1.419-1.54,7.256-1.199,9.23-0.983c3.148,0.342,7.011,1.06,9.877,2.416
				c0.43-0.961,0.857-1.921,1.287-2.882c-3.605,0.646-8.926-0.777-12.425-1.763c-0.896-0.252-2.003,1.777-1.786,2.501
				c0.563,1.875,2.162,2.415,3.926,2.995c2.283,0.75,4.91,1.918,7.3,2.005c0.962,0.035,2.486-2.194,1.546-2.919
				c-2.502-1.932-7.094-1.984-10.207-1.987c-2.33-0.002-4.074,0.271-5.204,2.426c-0.22,0.418-0.369,1.125,0.039,1.474
				c1.675,1.433,4.374,1.958,6.495,2.26c1.957,0.277,4.807,0.864,6.656,0.107c0.742-0.304,2.041-1.837,1.445-2.713
				c-1.147-1.684-3.516-1.657-5.357-1.813c-2.215-0.189-4.754-0.765-6.929-0.262c-0.726,0.167-2.074,1.971-1.445,2.713
				c2.263,2.666,7.02,2.678,10.3,2.932c2.363,0.183,6.188,0.483,8.012-1.464c4.085-4.362-6.068-5.691-8.467-5.272
				c-0.852,0.148-1.924,1.902-1.445,2.713c1.02,1.729,6.969,2.781,8.753,2.423c0.805-0.161,1.761-1.667,1.526-2.463
				c-0.475-1.62-3.501-1.741-4.832-1.964c-3.121-0.524-6.073-1.837-9.21-2.125c-1.114-0.103-2.574,2.871-1.325,2.985
				c2.604,0.24,4.979,1.426,7.549,1.872c0.876,0.151,5.327,0.412,5.572,1.249c0.509-0.821,1.018-1.642,1.526-2.463
				c-0.99,0.199-6.884-1.025-7.476-2.03c-0.482,0.905-0.965,1.808-1.445,2.713c1.556-0.271,3.818,0.376,5.351,0.752
				c0.767,0.188,1.474,0.667,2.2,0.843c0.061-0.315,0.121-0.632,0.182-0.947c-0.803,0.187-1.611,0.281-2.43,0.281
				c-3.132,0.123-10.098-0.008-12.256-2.553c-0.482,0.905-0.965,1.809-1.445,2.714c1.979-0.458,9.754-0.159,11.008,1.682
				c0.482-0.903,0.963-1.809,1.445-2.712c-2.954,1.208-9.908-0.359-12.191-2.312c0.014,0.491,0.027,0.983,0.039,1.474
				c-0.625,1.192,1.372,0.47,2.035,0.466c0.762-0.005,1.53,0.053,2.29,0.112c2.248,0.174,5.643,0.329,7.474,1.743
				c0.517-0.973,1.031-1.947,1.547-2.919c-1.985-0.072-9.651-1.854-10.305-4.031c-0.596,0.833-1.19,1.668-1.785,2.502
				c3.791,1.067,9.043,2.385,12.943,1.686c0.711-0.128,2.299-2.403,1.287-2.881c-3.619-1.712-8.801-2.757-12.789-2.646
				c-3.076,0.085-6.809,0.086-8.991,2.457c-0.443,0.481-1.2,2.006-0.21,2.299c2.58,0.762,6.566,0.871,9.227,0.404
				c0.828-0.145,2.367-2.701,1.066-2.947c-2.848-0.542-6.225,0.533-9.186,0.49c-0.355,0.982-0.711,1.965-1.066,2.948
				c2.057-0.44,4.912,0.351,7.005,0.633c2.034,0.274,5.597,0.707,7.081,2.085c0.335-0.916,0.67-1.831,1.006-2.748
				c-0.926,0.509-3.521-0.448-4.494-0.684c-2.473-0.6-5.392-1.506-7.31-3.272c-0.516,0.974-1.03,1.947-1.546,2.919
				c4.578-0.441,9.896,1.985,14.111,3.534c0.43-0.96,0.858-1.921,1.287-2.881c-1.537,0.488-3.926-0.365-5.447-0.685
				c-2.404-0.505-4.759-1.167-7.081-1.968C514.474,180.413,512.902,183.333,513.883,183.67L513.883,183.67z"/>
		</g>
	</g>
	<g>
		<g>
			<path fill="#FFFFFF" d="M466.744,155.313c0.869-5.896,10.977-7.93,15.617-7.319c3.78,0.498,7.522,1.647,11.297,2.11
				c1.068,0.13,2.623-2.726,1.325-2.986c-3.848-0.773-9.573,2.686-12.822,4.497c-2.716,1.514-12.354,8.722-15.77,4.507
				c-0.29,0.787-0.581,1.573-0.872,2.36c1.635-1.471,7.659-4.336,10.359-4.407c0.164-0.865,0.329-1.729,0.494-2.594
				c-1.715,1.746-6.313,2.619-8.59,2.759c-0.069,0.767-0.139,1.533-0.209,2.299c1.242-1.389,10.176-3.807,12.535-2.867
				c-0.013-0.491-0.025-0.982-0.039-1.474c-0.704,1.749-10.453,3.085-12.045,2.798c0.134,0.384,0.267,0.77,0.4,1.155
				c0.559-2.465,8.17-4.301,10.098-3.908c-0.088-0.514-0.175-1.027-0.262-1.54c-0.325,0.829-10.509,5.465-12.028,4.512
				c-0.319-0.2,5.112-2.69,5.981-2.973c2.218-0.722,7.434-2.766,9.578-1.269c0.335-0.916,0.67-1.832,1.004-2.748
				c-2.471,1.178-6.293,1.465-8.321,1.878c2.399-0.489,6.603-0.641,9.329-0.149c-0.133-0.384-0.267-0.77-0.4-1.155
				c0.25-1.041-4.896-0.218-5.889,0.012c-0.774,0.179-2.396,2.794-1.066,2.948c2.839,0.327,6.219-0.247,8.947-1.017
				c0.726-0.205,2.416-2.85,1.064-2.948c-2.043-0.148-4.08,0.094-6.092,0.478c-0.672,0.128-2.33,2.505-1.287,2.882
				c2.179,0.786,5.845,0.135,7.779-1.121c0.88-0.57,1.799-3.652,0.24-2.642c-0.98,0.637-5.376,1.225-6.252,0.909
				c-0.429,0.96-0.857,1.921-1.287,2.882c1.848-0.354,3.71-0.537,5.574-0.401c0.355-0.983,0.711-1.966,1.066-2.948
				c-2.332,0.658-6.266,1.19-8.43,0.94c-0.355,0.982-0.709,1.966-1.064,2.949c3.012-0.696,7.861,0.405,8.818-3.599
				c0.105-0.43,0.157-1.054-0.398-1.154c-3.041-0.549-13.263-1.139-13.746,3.768c-0.445,4.524,9.295,1.028,11.174,0.133
				c0.646-0.309,1.864-2.148,1.004-2.748c-3.305-2.307-21.188,2.359-20.254,8.417c0.725,4.697,15.523-2.491,16.801-5.742
				c0.186-0.468,0.464-1.392-0.26-1.54c-4.52-0.92-12.463,2.789-13.546,7.571c-0.099,0.432-0.159,1.054,0.399,1.155
				c3.047,0.55,7.315-1.007,10.329-1.811c2.386-0.636,3.947-1.548,4.886-3.878c0.118-0.294,0.459-1.275-0.039-1.473
				c-2.625-1.046-6.17,0.303-8.799,0.848c-2.794,0.58-4.521,1.149-6.41,3.262c-0.248,0.277-1.303,2.365-0.209,2.298
				c3.224-0.199,7.922-1.171,10.253-3.543c0.298-0.304,1.735-2.627,0.492-2.595c-3.63,0.095-9.299,2.737-12.023,5.19
				c-0.415,0.373-1.386,1.726-0.872,2.359c2.882,3.557,9.071,0.393,12.278-1.095c2.475-1.147,4.597-2.763,6.985-4.017
				c2.496-1.31,7.104-4.021,10.086-3.422c0.441-0.996,0.884-1.991,1.325-2.986c-7.255-0.889-13.659-3.621-20.837-0.75
				c-4.455,1.782-8.934,5.399-9.66,10.338C464.219,158.525,466.593,156.351,466.744,155.313L466.744,155.313z"/>
		</g>
	</g>
	<g>
		<g>
			<path fill="#FFFFFF" d="M451.706,153.575c-0.087-0.065-0.175-0.131-0.263-0.196c-0.209-0.155-0.586-0.011-0.763,0.105
				c-3.313,2.18-4.362,7.343-4.136,11.108c0.438,7.241,5.662,13.767,10.211,18.951c0.921,1.048,2.521-1.599,2.084-2.517
				c-2.182-4.574-1.041-11.018-1.534-15.984c-0.442-4.437-3.521-8.009-6.742-10.885c-0.74-0.661-1.813,1.329-1.945,1.765
				c-0.404,1.333-0.038,2.05,0.376,3.326c1.415,4.368,2.579,8.405,2.506,13.028c0.67-0.708,1.341-1.416,2.012-2.124
				c-2.027-1.744-2.148-6.133-2.519-8.517c-0.749,0.673-1.497,1.345-2.247,2.018c0.934,3.495,1.396,7.098,2.326,10.613
				c0.403,1.529,2.267-0.935,2.252-1.705c-0.076-4.24-1.749-8.933-4.045-12.458c-0.742-1.141-2.334,1.519-2.164,2.267
				c0.537,2.362,0.875,5.055,2.119,7.174c0.555,0.944,1.777-0.791,1.965-1.211c1.244-2.79-0.316-5.117,0.319-7.772
				c-0.649,0.588-1.298,1.177-1.946,1.765c1.861,1.589,4.449,8.37,3.922,11.106c0.701-0.533,1.402-1.065,2.104-1.597
				c-1.055-1.352-1.453-2.993-1.258-4.714c-0.724,0.652-1.447,1.304-2.172,1.954c1.475,1.831,1.209,6.791,0.906,8.786
				c0.725-0.651,1.447-1.302,2.172-1.955c-0.279-0.829-0.387-1.741-0.682-2.557c-0.168-0.461-0.389-3.279-0.619-0.907
				c-0.173,1.778,2.012,3.64,1.604,5.444c0.702-0.532,1.403-1.064,2.104-1.597c-1.45-2.267-2.49-6.087-3.108-8.641
				c-0.203-0.84-0.908-2.81-0.504-3.532c-0.387,0.691,0.315,1.772,0.553,2.402c0.694-0.839,1.389-1.677,2.084-2.516
				c-1.807-2.307-2.318-5.195-4.266-7.411c-0.643,0.895-1.283,1.79-1.926,2.684c0.061,0.064,0.121,0.127,0.181,0.191
				c0.69,0.726,2.634-1.941,1.769-2.853c-0.061-0.063-0.121-0.127-0.182-0.191c-0.684-0.719-2.596,1.922-1.926,2.685
				c1.945,2.214,2.459,5.103,4.266,7.411c0.884,1.13,2.418-1.628,2.084-2.516c-1.219-3.237-3.748-4.384-4.783-0.326
				c-1.088,4.256,1.484,11.704,3.676,15.129c0.653,1.021,1.985-1.069,2.104-1.596c0.511-2.265-1.184-7.172-3.681-7.7
				c-0.409-0.087-0.894,0.425-1.115,0.688c-1.892,2.253-0.54,5.778,0.284,8.226c0.427,1.268,2.109-1.545,2.172-1.955
				c0.408-2.706,0.692-7.706-1.081-9.909c-0.849-1.056-2.099,1.315-2.171,1.955c-0.24,2.101,0.113,4.147,1.432,5.837
				c0.725,0.929,1.985-0.983,2.104-1.597c0.712-3.69-1.408-10.833-4.277-13.282c-0.74-0.632-1.834,1.297-1.945,1.766
				c-0.561,2.342,0.975,4.726-0.041,7.001c0.655-0.404,1.311-0.808,1.965-1.211c-1.154-1.966-1.46-4.484-1.958-6.676
				c-0.722,0.755-1.442,1.511-2.165,2.267c2.004,3.078,3.805,7.678,3.871,11.334c0.75-0.567,1.501-1.136,2.252-1.705
				c-0.929-3.516-1.393-7.119-2.325-10.614c-0.41-1.534-2.397,1.048-2.247,2.018c0.464,2.986,0.533,7.231,2.998,9.352
				c0.812,0.698,2.004-1.551,2.014-2.123c0.045-2.813-0.172-5.337-0.876-8.08c-0.38-1.482-2.563-6.161-2.14-7.558
				c-0.648,0.588-1.297,1.176-1.945,1.765c4.777,4.266,6.115,8.416,6.436,14.637c0.201,3.934-0.207,8.265,1.523,11.896
				c0.695-0.838,1.39-1.678,2.084-2.517c-3.085-3.516-5.91-6.91-7.773-11.242c-0.979-2.277-2.108-4.546-2.2-7.06
				c-0.011-0.272,1.095-6.281,1.072-6.298C450.834,157.095,452.676,154.297,451.706,153.575L451.706,153.575z"/>
		</g>
	</g>
	<g>
		<g>
			<path fill="#FFFFFF" d="M422.176,143.035c-0.067,0.029-0.136,0.059-0.203,0.088c0.174,0.501,0.346,1.002,0.52,1.502
				c4.228-10.489,18.758-10.004,26.91-5.441c0.43-0.961,0.858-1.921,1.287-2.882c-2.299,0.556-4.373,1.535-6.621,2.148
				c-2.039,0.556-4.117,0.592-6.121,1.372c-5.426,2.113-8.732,4.698-14.855,3.162c-0.163,0.865-0.328,1.73-0.492,2.595
				c1.672-1.658,5.203-2.203,7.363-3.159c1.605-0.711,4.99-2.857,6.809-1.897c0.143-0.744,0.287-1.488,0.43-2.231
				c-2.278,2.519-8.213,5.348-11.695,4.141c-0.057,0.623-0.114,1.246-0.171,1.869c-0.032,0.05,4.107-0.756,3.72-0.672
				c2.273-0.494,4.525-1.232,6.864-0.991c0.069-0.767,0.141-1.533,0.21-2.299c-1.735,1.919-4.504,2.3-6.907,2.325
				c-0.681,0.008-4.073-0.157-3.61-0.625c2.04-2.06,10.699-1.606,13.673-1.489c0.261-0.938,0.522-1.876,0.782-2.813
				c-1.854,1.336-4.778,1.649-6.957,1.939c-0.973,0.13-1.953,0.175-2.925,0.3c-0.639,0.082-2.931,0.183-0.788,0.23
				c3.909,0.087,8.288-1.009,12.12-0.101c0.354-0.983,0.71-1.965,1.065-2.948c-2.967,0.933-6.035,0.601-8.844-0.734
				c-0.334,0.916-0.668,1.832-1.004,2.748c3.515-2.407,8.21,2.891,12.123,1.464c0.607-0.222,2.382-2.368,1.287-2.881
				c-1.189-0.557-1.98-0.373-3.282-0.482c-1.893-0.159-3.696-0.785-5.54-1.245c-0.441,0.995-0.884,1.991-1.326,2.986
				c2.883,0.229,5.891,1.026,8.742,1.021c1.043-0.002,2.381-2.086,1.547-2.92c-1.265-1.264-3.699-1.709-5.314-2.377
				c-1.088-0.45-2.787,2.313-1.768,2.854c1.289,0.685,3.074,0.036,4.149,1.063c0.749,0.717,2.67-1.99,1.768-2.853
				c-1.241-1.187-2.674-0.28-4.149-1.063c-0.59,0.951-1.179,1.902-1.768,2.854c1.607,0.665,4.189,1.252,5.314,2.377
				c0.516-0.974,1.031-1.947,1.547-2.92c-2.861,0.006-5.859-0.792-8.742-1.021c-1.051-0.083-2.641,2.658-1.326,2.986
				c0.096,0.023,3.836,1.137,4.587,1.213c1.309,0.133,2.513-0.221,3.793,0.38c0.43-0.96,0.858-1.92,1.288-2.881
				c-4.148,1.513-8.488-4.072-12.688-1.196c-0.466,0.318-2.012,2.269-1.005,2.748c3.167,1.506,6.448,1.845,9.804,0.791
				c0.754-0.236,2.428-2.625,1.066-2.948c-3.525-0.835-9.189-0.593-12.777,0.157c-1.664,0.348-4.064,1.244-4.34,3.263
				c-0.678,4.989,12.051,1.316,14.102-0.161c0.398-0.287,2.172-2.759,0.783-2.814c-3.152-0.125-19.133-0.591-18.13,5.877
				c0.368,2.368,4.239,2.25,5.927,2.191c3.438-0.119,6.317-1.129,8.629-3.684c0.334-0.369,1.277-2.188,0.209-2.298
				c-3.185-0.329-6.589,0.834-9.654,1.572c-1.857,0.448-2.65,0.589-3.682,2.193c-0.192,0.3-0.809,1.648-0.17,1.869
				c4.723,1.636,11.261-1.947,14.369-5.383c0.303-0.335,1.165-1.844,0.432-2.232c-2.258-1.193-5.308,0.737-7.363,1.652
				c-2.795,1.245-6.727,1.882-8.916,4.055c-0.459,0.456-1.676,2.297-0.492,2.594c4.83,1.212,8.914,0.28,13.277-2.107
				c2.398-1.313,4.563-1.751,7.181-2.334c2.61-0.58,5.04-1.685,7.657-2.317c0.717-0.172,2.292-2.319,1.287-2.881
				c-10.258-5.74-25.694-3.78-30.523,8.201c-0.145,0.357-0.458,1.925,0.52,1.501c0.068-0.029,0.137-0.059,0.205-0.088
				C422.324,145.531,423.477,142.472,422.176,143.035L422.176,143.035z"/>
		</g>
	</g>
	<g>
		<g>
			<path fill="#FFFFFF" d="M406.595,140.482c-8.118,10.336,0.337,22.926,7.631,30.642c0.69,0.729,2.548-1.903,1.926-2.685
				c-3.806-4.784-1.489-10.666-2.423-16.201c-0.344-2.038-1.004-4.031-1.977-5.856c0.136,0.252-3.406-4.837-3.672-4.106
				c-0.528,0.482-1.057,0.964-1.586,1.446c0.557-0.006,2.466,12.352,2.438,13.45c0.671-0.707,1.343-1.415,2.014-2.122
				c-1.554-1.462-2.247-6.069-2.201-7.824c-0.671,0.708-1.343,1.416-2.014,2.124c1.726,1.406,2.163,7.381,2.573,9.379
				c0.722-0.755,1.443-1.512,2.166-2.267c-1.181-2.875-2.454-5.707-3.72-8.545c-0.494-1.109-2.013,1.158-2.104,1.597
				c-0.779,3.8,0.777,11.297,3.667,13.952c0.62,0.569,1.662-1.05,1.807-1.38c1.461-3.341-0.407-5.655-1.117-8.918
				c-0.323-1.483-2.453,0.984-2.246,2.018c0.568,2.858,1.453,5.454,2.163,8.261c0.722-0.755,1.443-1.511,2.165-2.267
				c-3.203-3.831-3.248-11.343-2.845-15.9c0.056-0.634-0.426-1.033-1.009-0.625c-0.152,0.016-0.305,0.03-0.458,0.046
				c0.134,0.385,0.267,0.77,0.399,1.154c0.182-0.946,0.341-1.835,0.488-2.787c-0.753,0.464-1.506,0.928-2.258,1.393
				c-0.158,1.444-0.246,2.857-0.489,4.289c0.751-0.568,1.501-1.137,2.253-1.706c-0.365-1.446-0.121-3.933,0.191-5.261
				c0.5-2.129-1.84-0.534-2.125,0.677c-0.484,2.062-0.838,4.518-0.313,6.603c0.416,1.659,2.152-1.118,2.252-1.705
				c0.244-1.432,0.33-2.846,0.488-4.289c0.206-1.887-2.107,0.41-2.258,1.393c-0.119,0.69-0.236,1.381-0.354,2.072
				c-0.088,0.454-0.165,1.03,0.399,1.155c0.745,0.164,0.916,0.048,1.541-0.39c-0.337-0.208-0.673-0.417-1.008-0.625
				c-0.452,5.115-0.426,12.904,3.019,17.024c0.871,1.041,2.367-1.469,2.166-2.267c-0.704-2.782-1.604-5.439-2.164-8.261
				c-0.75,0.673-1.498,1.345-2.246,2.018c0.44,2.025,2.42,4.745,1.518,6.806c0.603-0.459,1.205-0.92,1.807-1.379
				c-1.76-1.616-3.876-9.017-3.311-11.776c-0.701,0.533-1.402,1.064-2.104,1.597c1.265,2.839,2.539,5.67,3.719,8.546
				c0.473,1.152,2.324-1.487,2.164-2.267c-0.58-2.829-0.631-8.242-3.051-10.215c-0.833-0.678-1.998,1.538-2.014,2.123
				c-0.077,2.926,0.488,7.211,2.693,9.284c0.779,0.734,1.998-1.58,2.012-2.123c0.066-2.708-0.889-5.619-1.324-8.313
				c-0.337-2.079-0.145-4.609-1.086-6.501c-0.084-0.146-0.211-0.225-0.379-0.235c-0.193,0.002-0.389,0.004-0.582,0.006
				c-0.701,0.007-1.372,0.858-1.586,1.446c-0.523,1.445-0.398,1.36,0.236,2.688c0.58,1.209,2.121,2.185,2.865,3.399
				c0.964,1.571,1.656,3.45,2.02,5.232c1.228,6.029-1.45,12.22,2.712,17.453c0.642-0.895,1.284-1.79,1.927-2.685
				c-3.007-3.179-6.064-6.428-8.061-10.368c-2.027-4.002-3.594-11.786-0.434-15.81C408.471,140.859,407.998,138.698,406.595,140.482
				L406.595,140.482z"/>
		</g>
	</g>
</g>
</svg>
